<?xml version="1.0" standalone="no"?>
<!DOCTYPE svg PUBLIC "-//W3C//DTD SVG 1.1//EN" "http://www.w3.org/Graphics/SVG/1.1/DTD/svg11.dtd" >
<!--
2013-9-30: Created.
-->
<svg>
<metadata>
Created by iconfont
</metadata>
<defs>

<font id="iconfont" horiz-adv-x="1024" >
  <font-face
    font-family="iconfont"
    font-weight="500"
    font-stretch="normal"
    units-per-em="1024"
    ascent="896"
    descent="-128"
  />
    <missing-glyph />
    
    <glyph glyph-name="github" unicode="&#59189;" d="M1.3 286.7c0-223 142.9-412.6 342.1-482.2 26.8-6.8 22.7 12.4 22.7 25.4l0 88.5C211.2-99.8 205 2.8 194.5 19.9c-21.1 35.9-70.7 45-55.9 62.1 35.3 18.2 71.2-4.6 112.9-66.1 30.2-44.6 88.8-37.1 118.7-29.6 6.5 26.8 20.5 50.7 39.6 69.4-160.3 28.5-227.3 126.5-227.3 243 0 56.4 18.6 108.4 55.2 150.3-23.2 69.2 2.2 128.2 5.6 137 66.3 6 135.1-47.4 140.5-51.6 37.7 10.1 80.7 15.6 128.8 15.6 48.4 0 91.6-5.6 129.5-15.8 12.9 9.8 76.8 55.6 138.4 50 3.3-8.8 28.1-66.5 6.3-134.7 37-42 55.8-94.3 55.8-151 0-116.7-67.3-214.8-228.2-243.1 26.9-26.5 43.5-63.3 43.5-104l0-128.4c0.9-10.2 0-20.5 17.2-20.5 202.1 68.1 347.6 259.1 347.6 484.1 0 282.1-228.7 510.7-510.7 510.7C229.9 797.4 1.3 568.8 1.3 286.7z"  horiz-adv-x="1024" />

    
    <glyph glyph-name="license" unicode="&#59134;" d="M947.2-25.6l-870.4 0c-42.3424 0-76.8 34.4576-76.8 76.8l0 665.6c0 42.3424 34.4576 76.8 76.8 76.8l870.4 0c42.3424 0 76.8-34.4576 76.8-76.8l0-665.6c0-42.3424-34.4576-76.8-76.8-76.8zM76.8 742.4c-14.1312 0-25.6-11.4688-25.6-25.6l0-665.6c0-14.1312 11.4688-25.6 25.6-25.6l870.4 0c14.1312 0 25.6 11.4688 25.6 25.6l0 665.6c0 14.1312-11.4688 25.6-25.6 25.6l-870.4 0zM486.4 588.8l-307.2 0c-14.1312 0-25.6 11.4688-25.6 25.6s11.4688 25.6 25.6 25.6l307.2 0c14.1312 0 25.6-11.4688 25.6-25.6s-11.4688-25.6-25.6-25.6zM486.4 435.2l-307.2 0c-14.1312 0-25.6 11.4688-25.6 25.6s11.4688 25.6 25.6 25.6l307.2 0c14.1312 0 25.6-11.4688 25.6-25.6s-11.4688-25.6-25.6-25.6zM486.4 332.8l-307.2 0c-14.1312 0-25.6 11.4688-25.6 25.6s11.4688 25.6 25.6 25.6l307.2 0c14.1312 0 25.6-11.4688 25.6-25.6s-11.4688-25.6-25.6-25.6zM486.4 230.4l-307.2 0c-14.1312 0-25.6 11.4688-25.6 25.6s11.4688 25.6 25.6 25.6l307.2 0c14.1312 0 25.6-11.4688 25.6-25.6s-11.4688-25.6-25.6-25.6zM435.2 128l-256 0c-14.1312 0-25.6 11.4688-25.6 25.6s11.4688 25.6 25.6 25.6l256 0c14.1312 0 25.6-11.4688 25.6-25.6s-11.4688-25.6-25.6-25.6zM918.6816 560.9472l-41.6256 30.2592-15.9232 48.9472-51.456 0-41.6256 30.2592-41.6256-30.2592-51.456 0-15.9232-48.9472-41.6256-30.2592 15.9232-48.9472-15.9232-48.9472 41.6256-30.2592 6.7584-20.7872c-0.1024-0.8192-0.1024-1.5872-0.1024-2.4064l0-256c0-10.3424 6.2464-19.712 15.8208-23.6544s20.5824-1.792 27.904 5.5296l58.6752 58.6752 58.6752-58.6752c4.9152-4.9152 11.4176-7.5264 18.1248-7.4752 3.2768 0 6.6048 0.6144 9.7792 1.9456 9.5744 3.9424 15.8208 13.312 15.8208 23.6544l0 256c0 0.8192-0.0512 1.6384-0.1024 2.4064l6.7584 20.7872 41.6256 30.2592-15.9232 48.9472 15.9232 48.9472zM677.5296 541.3888l24.9856 18.176 9.5744 29.3888 30.9248 0 24.9856 18.176 24.9856-18.176 30.9248 0 9.5744-29.3888 24.9856-18.176-9.5744-29.3888 9.5744-29.3888-24.9856-18.176-9.5744-29.3888-30.9248 0-24.9856-18.176-24.9856 18.176-30.9248 0-9.5744 29.3888-24.9856 18.176 9.5744 29.3888-9.5744 29.3888zM786.1248 248.5248c-9.984 9.984-26.2144 9.984-36.1984 0l-33.0752-33.0752 0 168.448 9.5744 0 41.6256-30.2592 41.6256 30.2592 9.5744 0 0-168.448-33.0752 33.0752z"  horiz-adv-x="1024" />

    
    <glyph glyph-name="qzone" unicode="&#59136;" d="M801.22311111 256.34133333c0 0-79.64444445-26.73777778-74.29688889-57.79911111 10.12622222-48.46933333 38.68444445-185.11644445 38.68444445-185.11644444L499.82577778 157.80977778c0 0-162.92977778-101.60355555-239.84355556-144.384 16.83911111 89.99822222 42.78044445 196.03911111 59.61955556 286.03733333C253.83822222 357.94488889 187.96088889 416.42666667 122.08355555 475.02222222c87.26755555 11.264 174.64888889 22.64177778 261.91644445 33.90577778 45.28355555 77.93777778 90.45333333 155.87555555 135.73688889 233.92711111 38.45688889-79.98577778 76.8-160.08533333 115.25688889-240.07111111 89.54311111-8.76088889 179.08622222-17.52177778 268.51555555-26.39644445-40.04977778-38.34311111-88.51911111-76.57244445-128.56888888-114.91555555-23.77955555-22.75555555-79.75822222-88.74666667-79.75822223-98.98666667-52.11022222 6.144-150.18666667 12.288-229.60355555 18.432 4.32355555 2.048 115.82577778 75.66222222 165.20533333 110.36444445 23.552 16.61155555 60.07466667 49.83466667 60.07466667 49.83466667-35.38488889 15.01866667-102.62755555 21.73155555-173.62488889 21.73155555-87.26755555 0-178.06222222-10.24-217.31555556-27.87555555 12.62933333-0.79644445 25.48622222-1.59288889 38.11555556-2.50311112 81.80622222-5.34755555 163.72622222-10.69511111 245.53244444-16.04266666-2.16177778-4.096-238.02311111-166.34311111-238.02311111-166.34311112 44.71466667-5.91644445 90.79466667-8.192 136.87466667-8.192 95.91466667 0 192.17066667 10.12622222 278.86933333 19.56977778l54.272 58.25422222L1021.49688889 517.12l-352.256 34.58844445L524.17422222 854.016 351.91466667 557.16977778 2.048 512 262.82666667 280.23466667l-74.52444445-366.25066667 313.23022223 183.52355555 338.03377777-183.63733333-57.344 274.31822223c-2.16177778 10.35377778-1.13777778 21.16266667 3.072 30.83377777L801.22311111 256.34133333z"  horiz-adv-x="1024" />

    
    <glyph glyph-name="qq" unicode="&#58900;" d="M553.3279264 18.340230399999996L553.3279264 18.340230399999996c-11.92929387 0-17.8715648 0-23.8160192 0-5.902976 0-11.88781653 0-17.83336213 0l-5.9444544 0c-5.94336213 0-17.83226987 0-23.77563307-5.902976-23.77672427-23.814928-65.3846272-35.7071104-118.88362133-35.7071104-35.66344853 0-65.3846272 5.98484053-95.10798827 17.83445334-23.77563307 11.88672533-35.6645408 23.814928-35.6645408 41.6100864 0 17.83226987 11.88672533 29.7200864 41.6100864 41.64828906 17.83226987 5.9040672 23.77563307 11.84742933 23.77563307 23.814928 0 11.84742933 0 23.73742933-5.9444544 29.7211776-11.88781653 11.76993173-17.83336213 29.64149653-29.7211776 41.49001814-5.9444544 11.88781653-17.83117867 17.87265707-29.7189952 17.87265706l0 0c-11.88781653 0-17.83226987-5.98265707-29.7211776-11.9685888-11.88672533-11.84742933-17.83226987-17.75368-23.77672427-17.75368l0 0c-5.9444544 0-11.84742933 17.75368-11.84742933 47.4726752 0 29.7211776 5.9040672 65.4261056 11.8081344 101.13103254 11.88890773 35.62524587 29.7200864 65.34533227 59.4401728 95.06650986 5.9466368 5.9040672 11.88999893 17.83226987 11.88999893 29.7211776 0 5.902976 0 5.902976 0 11.84742934 0 17.87265707 5.94336213 35.6645408 17.83117867 53.49790186 5.9455456 5.9444544 5.9455456 11.88672533 5.9455456 17.83226987l0 5.9455456c0.03820373 71.36946773 23.7745408 130.81073173 77.31282986 184.30863467 47.55453973 53.5371968 106.99362133 77.27462613 178.3259776 77.27462613 71.3301728 0 130.77362027-23.77672427 184.26824747-77.27462613 47.59274347-53.49790187 77.31282987-112.93916693 77.31282987-184.2300448 0 0 0 0 0-5.9444544 0-5.9455456 0-11.88781653 5.90515946-17.83226987 11.88454187-17.83336213 17.83226987-35.62524587 17.83226987-53.49790187 0-5.9444544 0-5.9444544 0-11.84742933 0-11.88781653 0-23.814928 11.88672533-29.7200864 29.7211776-29.7200864 47.55344853-59.44126507 59.44126507-95.06650987 11.88781653-35.70601813 17.83226987-71.4076704 11.88781653-101.13103253 0-29.7200864-5.9455456-41.568608-17.7940672-47.47485867-5.9455456 0-11.92929387 5.9040672-23.8171104 17.75477227-5.9018848 5.9444544-17.83336213 11.9674976-29.7189952 11.9674976l-5.90515946 0c-11.93038613 0-23.81383573-5.98047467-29.7189952-17.8704736-5.9455456-17.83117867-17.8715648-29.7211776-29.7211776-41.5675168-5.9444544-5.98265707-11.92820267-17.8715648-5.9444544-29.7211776 0-11.9685888 11.88890773-17.8704736 17.7951584-23.814928 29.68188267-11.9674976 41.6111776-23.85531413 41.6111776-41.687584 0-17.79297493-11.92929387-29.7211776-35.665632-41.60899413-23.77563307-11.84742933-59.4390816-17.83445333-95.10907947-17.83445334-53.49681067 0-89.16244267 11.93038613-118.88252907 35.70601814 5.94336213 0-5.9444544 5.9444544-11.84742933 5.9444544l0 0L553.3279264 18.340230399999996zM690.00561387-94.63932265999995c59.44126507 0 106.99362133 11.88672533 142.65925333 35.62524586 35.6645408 23.814928 59.4390816 53.5371968 59.4390816 95.10798827 0 23.77781547-5.902976 41.64938133-17.79079253 59.44126507 5.94336213 0 17.79079253 0 23.7734496 5.98265706 35.6645408 11.84742933 53.50008533 41.568608 59.44235626 89.16462614 5.94336213 41.56533333 0 89.16244267-17.7940672 142.6199584-11.92820267 41.64938133-35.6645408 77.27462613-65.383536 112.93916693l0 0c0 29.7200864-5.9455456 53.49790187-17.83445333 83.21689707 0 89.16353387-29.7189952 166.4370688-95.06650987 231.8620832C695.9467936 826.70519254 618.6710752 856.4285536 529.5129984 856.4285536c-89.16353387 0-166.4370688-29.7200864-231.82387947-95.06650986-59.4816512-65.42501333-95.10798827-142.70073173-95.10798826-231.8620832-11.88672533-23.77672427-17.83226987-53.49790187-17.83226987-83.21798934l0-5.94336213c-35.66344853-29.7211776-53.49790187-71.331264-65.3846272-106.99253013-17.83336213-53.4596992-23.77672427-101.05353387-17.83336213-142.62214187 5.9455456-47.59383467 29.7211776-77.31501333 59.44126506-89.16353387 5.9444544 0 17.83336213-5.98265707 23.77672427-5.98265706-11.88781653-17.7940672-17.83336213-35.665632-17.83336213-59.44126507 0-35.6645408 17.83336213-71.3301728 59.44235626-95.10798827 35.6645408-23.77781547 83.21689707-35.6645408 136.71370774-35.6645408 59.4401728 0 112.93916693 11.88563307 148.60479893 41.60790294l29.7211776 0c41.64828907-29.7200864 89.16353387-41.60790293 148.60479893-41.60790294l0 0L690.00561387-94.63932265999995z"  horiz-adv-x="1024" />

    
    <glyph glyph-name="my-wallet-wechat" unicode="&#59129;" d="M692.313043 548.7304349999999c11.130435 0 22.26087 0 35.617391-2.226087C696.765217 691.2 540.93913 800.278261 362.852174 800.278261c-198.121739 0-360.626087-135.791304-360.626087-307.2 0-100.173913 53.426087-180.313043 144.695652-242.643478L111.304348 139.13043500000003l126.886957 62.330435c44.521739-8.904348 82.365217-17.808696 126.886957-17.808696 11.130435 0 22.26087 0 33.391304 2.226087-6.678261 24.486957-11.130435 48.973913-11.130435 75.686957C385.113043 419.617391 520.904348 548.7304349999999 692.313043 548.7304349999999L692.313043 548.7304349999999zM498.643478 646.678261c26.713043 0 44.521739-17.808696 44.521739-44.521739 0-26.713043-17.808696-44.521739-44.521739-44.521739-26.713043 0-53.426087 17.808696-53.426087 44.521739C445.217391 628.869565 471.930435 646.678261 498.643478 646.678261L498.643478 646.678261zM244.869565 555.408696c-26.713043 0-53.426087 17.808696-53.426087 44.521739 0 26.713043 26.713043 44.521739 53.426087 44.521739 26.713043 0 44.521739-17.808696 44.521739-44.521739C291.617391 573.217391 273.808696 555.408696 244.869565 555.408696L244.869565 555.408696zM244.869565 555.408696M1021.773913 266.017391c0 144.695652-144.695652 262.678261-307.2 262.678261-171.408696 0-307.2-117.982609-307.2-262.678261 0-144.695652 135.791304-262.678261 307.2-262.678261 35.617391 0 71.234783 8.904348 109.078261 17.808696l97.947826-53.426087-26.713043 91.269565C968.347826 112.41739099999995 1021.773913 185.87826099999995 1021.773913 266.017391L1021.773913 266.017391zM616.626087 312.765217c-17.808696 0-35.617391 17.808696-35.617391 35.617391 0 17.808696 17.808696 35.617391 35.617391 35.617391 26.713043 0 44.521739-17.808696 44.521739-35.617391C661.147826 330.57391299999995 643.33913 312.765217 616.626087 312.765217L616.626087 312.765217zM814.747826 312.765217c-17.808696 0-35.617391 17.808696-35.617391 35.617391 0 17.808696 17.808696 35.617391 35.617391 35.617391 26.713043 0 44.521739-17.808696 44.521739-35.617391C859.269565 330.57391299999995 841.46087 312.765217 814.747826 312.765217L814.747826 312.765217zM814.747826 312.765217"  horiz-adv-x="1024" />

    
    <glyph glyph-name="pfork" unicode="&#58880;" d="M901.879662 377.819231c0-126.071324 0-252.142647 0-378.213971-0.14224-0.708128-0.394996-1.413186-0.408299-2.12336-0.11768-6.014994-1.304715-11.863189-2.814092-17.645892-10.958586-41.971927-47.003524-72.431659-88.473007-77.117378-2.346441-0.265036-4.688789-0.572028-7.033184-0.860601-193.527668 0-387.055336 0-580.583005 0-0.797156 0.140193-1.589195 0.317225-2.391467 0.414439-3.405563 0.413416-6.845918 0.623193-10.214642 1.228991-22.430872 4.033873-41.635259 14.239306-57.351196 30.727839-16.451694 17.262152-25.962302 37.824467-28.3947 61.607126-0.12996 1.27197-0.572028 2.512217-0.868787 3.767813 0 126.071324 0 252.142647 0 378.213971 0.301875 1.342578 0.677429 2.673899 0.892323 4.030803 0.613984 3.875261 0.949628 7.806803 1.771343 11.634991 8.138354 37.913495 35.600823 67.480904 72.764234 78.458933 0.853437 0.251733 1.703805 0.515746 2.734274 0.827855 0 1.030469 0 2.00261 0 2.974751 0 24.720008 0.00921 49.441039-0.004093 74.161047-0.00614 12.122085 0.554632 24.210401 1.809205 36.272112 1.457188 14.016225 3.805676 27.876907 7.160073 41.554418 12.573363 51.27378 36.273135 96.774067 71.256904 136.310525 54.722322 61.84351 132.091434 100.846826 217.681788 104.56859 0.884137 0.038886 1.760087 0.257873 2.639107 0.39295 7.204076 0 14.408151 0 21.612227 0 0.800225-0.130983 1.595334-0.317225 2.400676-0.384763 7.986905-0.671289 15.994276-1.149173 23.959691-2.015913 17.441231-1.89721 34.546817-5.54325 51.342342-10.587126 101.007485-30.337959 180.596148-110.196775 210.722282-211.355709 4.936429-16.575514 8.492418-33.4396 10.57587-50.599422 0.75827-6.243191 1.446955-12.542664 1.474584-18.819624 0.144286-33.145911 0.067538-66.291822 0.067538-99.438757 0-0.973164 0-1.945305 0-3.01159 0.909719-0.283456 1.674129-0.525979 2.441609-0.76134 29.565363-9.061376 51.456952-27.253714 65.092507-55.078433 5.741771-11.715833 9.152451-24.12956 9.735735-37.240159C901.507178 379.076874 901.741515 378.45061 901.879662 377.819231zM464.848097 283.314857c1.320065 0 2.207271-0.001023 3.093455 0 19.400862 0.037862 38.801724 0.086981 58.202587 0.112564 62.297858 0.082888 124.594693 0.145309 186.892551 0.285502 2.269693 0.005117 3.675716-0.633427 5.084808-2.461051 20.23588-26.233478 53.229319-38.871309 85.763292-33.254382 39.089273 6.748704 71.964008 40.23333 73.812099 84.98251 0.387833 9.379625-0.773619 18.61701-3.332908 27.656897-12.352329 43.629683-55.614645 72.198346-102.072747 63.649646-23.053042-4.241604-41.557488-16.146749-55.587016-34.92851-0.989537-1.325182-1.986237-1.841951-3.631714-1.833765-13.915941 0.069585-27.832905 0.056282-41.74987 0.057305-112.234177 0.002047-224.469378 0.002047-336.703555-0.00307-5.894244 0-11.791557 0.061398-17.679661-0.143263-2.229784-0.077771-3.5038 0.697895-4.827959 2.422166-17.708314 23.061228-41.183981 35.032888-70.204945 35.938514-9.455349 0.294712-18.749016-1.202385-27.798113-4.049223-44.485167-13.994736-70.64599-59.637262-60.386322-105.419981 9.92607-44.294832 52.661384-76.125795 101.045347-68.52263 22.24463 3.495614 40.507576 14.304797 54.92903 31.598672 1.796926 3.795443 4.976338 4.208858 8.608052 3.52529 0.159636-0.029676 0.327458-0.01842 0.48914-0.041956 10.965749-1.606591 20.973684-5.602601 29.979802-12.06785 4.007267-2.876514 7.730055-6.187933 10.561543-10.157337 4.329609-6.068206 7.693216-12.706393 9.674337-19.999496 4.548596-16.738219 8.191566-33.68417 11.710716-50.65468 4.465708-21.531386 8.829086-43.085284 13.07069-64.661695 4.115738-20.935822 7.972579-41.921785 12.035104-62.86784 3.02387-15.592117 7.978718-30.527271 15.747659-44.446281 7.122211-12.761652 16.517185-23.373337 29.424146-30.54569 18.307971-10.17371 38.040385-15.490809 58.905598-15.702634 33.151028-0.335644 66.308195-0.110517 99.463316-0.040932 2.112104 0.004093 3.343141-0.665149 4.640694-2.321882 16.901948-21.588691 39.10974-33.255405 66.451458-35.006282 8.449439-0.541329 16.833387 0.361227 25.078165 2.348488 44.141336 10.636245 74.375941 53.217039 67.488067 100.358709-2.922563 20.005636-11.664667 37.287231-26.365484 51.199079-22.119787 20.932752-48.481178 28.865421-78.422094 23.51353-22.621207-4.044106-40.797172-15.835663-54.737672-34.098609-0.880043-1.153266-1.76418-1.660826-3.234671-1.657756-25.1324 0.041956-50.2648 0.144286-75.396177-0.014326-13.085016-0.082888-28.102035 10.429537-31.317263 25.501814-5.918803 27.744901-11.821233 55.492872-17.735943 83.237773-6.135744 28.783557-12.280698 57.56609-18.417465 86.349647C466.568275 275.051659 465.761909 278.957619 464.848097 283.314857zM305.334103 477.759407c3.492544-0.552585 413.192623-0.399089 415.049924 0.150426 0 0.765433 0 1.578961 0 2.391467 0 25.210172 0.016373 50.421366-0.007163 75.631538-0.01228 13.20986-1.25355 26.313296-3.810792 39.272445-6.53074 33.095769-20.186761 62.96096-40.961924 89.534176-41.522696 53.111638-107.400079 85.317131-178.559768 79.730902-16.391319-1.286296-32.389688-4.474918-47.974641-9.68457-85.528955-28.593222-143.568836-109.086487-143.729495-199.332884-0.044002-24.964578-0.007163-49.930179-0.007163-74.894757C305.334103 479.662757 305.334103 478.767364 305.334103 477.759407zM788.500405 373.55102c20.633946-0.007163 37.253462-16.695241 37.229926-37.382399-0.023536-20.617573-16.823154-37.480636-37.34863-37.33021-20.25123 0.148379-37.090756 16.21224-37.09792 37.326117C751.274572 358.566748 769.608126 373.824243 788.500405 373.55102zM203.475228 336.225927c0.001023 20.666692 16.672728 37.350676 37.300534 37.32714 20.600177-0.023536 37.247322-16.775059 37.21253-37.446867-0.034792-20.433378-16.829294-37.262672-37.20946-37.286208C220.24824 298.795433 203.474204 315.61654 203.475228 336.225927zM684.726923 61.273784c20.396539 0.059352 37.247322-16.715707 37.298488-37.160341 0.050142-20.123316-15.696494-37.490869-37.084617-37.59013-21.383006-0.098237-37.319977 17.130146-37.410028 37.253462C647.437645 44.407652 664.151305 61.214433 684.726923 61.273784z"  horiz-adv-x="1024" />

    
    <glyph glyph-name="enterprise" unicode="&#58948;" d="M183.458 675.187h147.196v-108.795h-147.196v108.795zM403.182 675.187h147.195v-108.795h-147.195v108.795zM183.458 491.728h147.196v-108.795h-147.196v108.795zM403.182 491.728h147.195v-108.795h-147.195v108.795zM767.966 491.728h72.532v-108.795h-72.532v108.795zM767.966 310.402h72.532v-108.795h-72.532v108.795zM183.458 310.402h147.196v-108.795h-147.196v108.795zM403.182 310.402h147.195v-108.795h-147.195v108.795zM987.695-20.254v659.178h-292.255v219.722h-659.177v-876.767h-36.263v-72.526h1023.957v72.526h-36.262v-2.134zM108.794-20.254v806.368h511.982v-804.235l-511.982 0v-2.134zM695.44-20.254v586.646h219.722v-584.513l-219.722 0v-2.134zM695.44-20.254z"  horiz-adv-x="1040" />

    
    <glyph glyph-name="inneropen" unicode="&#58881;" d="M517.262-96.951c-92.943 0-185.886 0.001-278.828-0.001-17.757 0-34.96 2.759-50.706 11.386-35.824 19.628-56.119 49.717-56.309 90.806-0.562 121.62-0.295 243.244-0.152 364.866 0.053 45.642 28.619 84.272 72.193 98.15 4.050 1.29 4.988 3.16 4.986 7.106-0.017 29.738-0.833 59.526 0.548 89.207 3.374 72.455 29.028 136.512 76.401 191.434 46.793 54.25 105.433 89.223 176.079 101.872 93.038 16.657 177.293-4.897 250.752-64.314 63.675-51.503 100.55-118.996 112.603-199.967 1.194-8.020 1.62-16.215 1.669-24.333 0.187-31.334 0.159-62.67-0.024-94.004-0.024-4.086 1.235-5.749 5.118-6.99 43.765-14.002 72.224-52.837 72.248-98.686 0.067-121.268 0.084-242.537-0.005-363.805-0.040-53.857-42.497-98.873-96.079-102.169-5.649-0.348-11.316-0.533-16.975-0.535-91.174-0.033-182.346-0.024-273.518-0.024zM723.538 474.668c0 2.426 0 4.342 0 6.256 0.001 23.541-0.112 47.084 0.034 70.625 0.143 23.052-3.72 45.399-11.063 67.201-44.384 131.767-202.593 183.81-313.719 102.727-53.763-39.228-83.102-92.736-86.811-159.285-1.574-28.236-0.457-56.622-0.528-84.94-0.002-0.83 0.397-1.661 0.633-2.584 136.949 0 273.732 0 411.454 0zM641.726 220.349c0 0.386 0 0.771 0 1.156-23.536 0-47.072 0.007-70.609-0.011-2.297-0.002-4.605-0.055-6.89-0.266-4.956-0.458-7.857-3.159-7.942-8.218-0.302-18.044-0.713-36.092-0.611-54.135 0.042-7.355 2.312-9.198 9.598-10.029 2.981-0.34 5.996-0.501 8.996-0.525 46.719-0.364 93.439-0.687 140.158-1.038 7.494-0.056 8.503-1.194 8.41-8.669-0.25-20.172-0.601-40.346-0.624-60.519-0.018-15.575 15.232-24.794 29.134-17.691 3.097 1.582 6.034 3.767 8.522 6.207 32.978 32.341 65.884 64.756 98.732 97.228 2.741 2.711 5.296 5.753 7.31 9.027 4.048 6.578 4.007 13.507-0.036 20.089-1.924 3.131-4.326 6.055-6.906 8.685-32.606 33.214-65.275 66.367-97.949 99.513-7.93 8.044-16.163 10.076-24.93 6.555-9.756-3.918-12.309-11.796-12.335-21.338-0.051-19.112-0.246-38.225-0.365-57.338-0.049-7.914-0.825-8.685-8.927-8.684-24.246 0.002-48.49 0.001-72.735 0.001zM400.995 149.206c0-0.291 0-0.581 0-0.873 24.070 0 48.14-0.068 72.21 0.029 11.729 0.047 13.962 2.401 14.016 14.058 0.064 13.805 0.087 27.611 0.111 41.415 0.028 16.436-1.182 17.616-17.842 17.682-46.725 0.185-93.45 0.363-140.175 0.584-8.767 0.041-9.266 0.734-9.192 9.407 0.17 19.998 0.343 39.999 0.309 59.997-0.018 11.133-7.116 18.714-18.168 19.697-7.407 0.658-13.52-2.539-18.573-7.532-33.865-33.465-67.724-66.937-101.381-100.61-11.206-11.213-11.106-22.652 0.056-33.986 33.531-34.048 67.205-67.957 100.885-101.858 7.219-7.268 15.914-9.028 24.248-5.506 9.122 3.855 12.077 11.205 12.060 20.449-0.036 19.291 0.016 38.584 0.032 57.876 0.006 8.012 1.127 9.161 9.194 9.166 24.069 0.015 48.139 0.005 72.211 0.005z"  horiz-adv-x="1024" />

    
    <glyph glyph-name="file-submodule" unicode="&#58995;" d="M921.6 384h-204.8c0 34.133-34.133 68.267-68.267 68.267h-136.533c-34.133 0-68.267-34.133-68.267-68.267v-341.333h546.133v273.067c0 34.133-34.133 68.267-68.267 68.267zM648.533 315.733h-136.533v34.133c0 16.009 16.009 34.133 34.133 34.133h68.267c17.067 0 34.133-16.009 34.133-34.133v-34.133zM921.6 657.067h-375.467c-17.067 0-34.133 18.125-34.133 34.133v34.133c0 34.133-34.133 68.267-68.267 68.267h-341.333c-34.133 0-68.267-34.133-68.267-68.267v-682.667h341.333v409.6c0 34.133 34.133 68.267 68.267 68.267h273.067c34.133 0 68.267-34.133 68.267-68.267h204.8v136.533c0 34.133-34.133 68.267-68.267 68.267zM443.733 657.067h-341.333v34.133c0 17.067 17.067 34.133 34.133 34.133h273.067c17.067 0 34.133-18.125 34.133-34.133v-34.133z"  horiz-adv-x="1024" />

    
    <glyph glyph-name="pin" unicode="&#58939;" d="M684.8 288c-6.4 0-12.8 0-19.2 6.4l-236.8 236.8c-12.8 12.8-12.8 25.6 0 38.4l249.6 249.6c19.2 19.2 51.2 32 83.2 32s57.6-12.8 76.8-32l121.6-121.6c19.2-19.2 32-51.2 32-83.2s-12.8-64-32-83.2l-249.6-243.2h-25.6z m-198.4 262.4l198.4-198.4 230.4 230.4c6.4 6.4 12.8 25.6 12.8 38.4 0 12.8-6.4 32-12.8 38.4l-121.6 121.6c-6.4 6.4-19.2 12.8-32 12.8s-32-6.4-38.4-19.2l-236.8-224zM595.2 569.6c-6.4 0-6.4 0-12.8 6.4s-6.4 12.8 0 19.2l6.4 6.4c6.4 6.4 12.8 6.4 19.2 0 6.4-6.4 6.4-12.8 0-19.2l-6.4-6.4c0-6.4-6.4-6.4-6.4-6.4zM627.2 608c-6.4 0-6.4 0-12.8 6.4s-6.4 12.8 0 19.2l96 96c19.2 19.2 57.6 25.6 83.2 0l64-64c6.4-6.4 6.4-12.8 0-19.2-6.4-6.4-12.8-6.4-19.2 0l-64 64c-12.8 12.8-32 6.4-38.4 0l-96-96c-6.4-6.4-6.4-6.4-12.8-6.4zM588.8-83.2c-6.4 0-12.8 0-19.2 6.4l-115.2 115.2-403.2 403.2c-6.4 6.4-6.4 12.8-6.4 19.2 0 6.4 0 12.8 6.4 19.2 108.8 108.8 275.2 147.2 422.4 89.6 12.8-6.4 19.2-19.2 19.2-38.4-6.4-12.8-19.2-19.2-38.4-19.2-115.2 44.8-243.2 19.2-339.2-57.6 115.2-108.8 268.8-268.8 384-384l96-96c76.8 89.6 102.4 211.2 64 326.4-6.4 12.8 0 32 19.2 38.4 12.8 6.4 32 0 38.4-19.2 51.2-140.8 12.8-300.8-96-409.6-19.2 6.4-25.6 6.4-32 6.4zM83.2-64c-6.4 0-12.8 0-19.2 6.4-12.8 12.8-12.8 32 0 38.4l249.6 243.2c12.8 12.8 32 12.8 38.4 0 12.8-12.8 12.8-32 0-38.4l-249.6-243.2c-6.4-6.4-12.8-6.4-19.2-6.4z"  horiz-adv-x="1024" />

    
    <glyph glyph-name="chart-pie" unicode="&#59151;" d="M455.704856 355.878522l318.987055-318.987055c-43.782156-43.782156-87.565335-75.055416-143.857409-100.07423-56.292074-25.018813-112.584148-37.527708-175.130669-37.527708-81.310887 0-156.366304 18.764366-225.167273 62.546521-68.800969 43.782156-118.838595 93.819782-156.366304 162.620751S11.623735 268.31318799999997 11.623735 349.62407499999995 30.388101 505.990379 74.170257 574.791347c43.782156 68.800969 93.819782 125.093043 162.620751 162.620751S380.648416 799.959643 461.959304 799.959643L455.704856 355.878522 455.704856 355.878522 455.704856 355.878522zM562.033533 349.62407499999995l450.335568 0c0-62.546521-12.508895-118.838595-37.527708-175.130669-25.018813-56.292074-56.292074-100.07423-100.07423-143.857409L562.033533 349.62407499999995 562.033533 349.62407499999995zM974.841394 424.679491L530.760273 424.679491 530.760273 868.760612c81.310887 0 156.366304-18.764366 225.167273-62.546521 68.800969-43.782156 125.093043-93.819782 162.620751-162.620751C956.077028 581.045795 974.841394 505.990379 974.841394 424.679491L974.841394 424.679491 974.841394 424.679491z"  horiz-adv-x="1024" />

    
    <glyph glyph-name="tags" unicode="&#59076;" d="M819.45 337.188l-443.174 443.177c-5.791 5.79-13.79 9.372-22.627 9.372-0.001 0-0.001-0-0.002-0l-316.785 0c-17.673 0-32-14.327-32-32v-316.783c0-8.486 3.371-16.625 9.372-22.628l443.177-443.177c12.446-12.446 28.849-18.667 45.254-18.667s32.811 6.223 45.254 18.667l271.529 271.529c24.892 24.892 24.892 65.621 0.002 90.511zM502.748 20.486c-0.024-0.002-0.053-0.004-0.081-0.004s-0.057 0.001-0.085 0.004l-433.72 433.721v271.529h271.529l433.722-433.722c0.002-0.024 0.003-0.053 0.003-0.081s-0.001-0.057-0.003-0.085l-271.364-271.363zM1000.469 337.188l-443.177 443.177c-5.791 5.79-13.79 9.372-22.627 9.372-0.001 0-0.001-0-0.002-0l-77.254 0 452.548-452.548c24.89-24.89 24.89-65.619 0-90.509l-271.529-271.531c24.89-24.89 65.619-24.89 90.509 0l271.531 271.531c24.89 24.89 24.89 65.619 0 90.509zM139.117 564.97c11.582-11.581 27.581-18.744 45.254-18.744 35.346 0 64 28.654 64 64 0 17.674-7.164 33.674-18.746 45.256-11.582 11.581-27.581 18.744-45.254 18.744-35.346 0-64-28.654-64-64 0-17.674 7.164-33.674 18.746-45.256z"  horiz-adv-x="1024" />

    
    <glyph glyph-name="company-config" unicode="&#58882;" d="M416.961 208.417h152.225v112.512h-152.225zM416.961 395.946h152.225v112.512h-152.225zM189.729 395.946h152.225v112.512h-152.225zM189.729 585.674h152.225v112.512h-152.225zM189.729 208.417h152.225v112.512h-152.225zM416.961 585.674h152.225v112.512h-152.225zM794.219 395.946h75.008v112.512h-75.008zM112.513-18.819v831.722h529.481v-590.981c18.716 37.076 45.144 69.584 77.216 95.398v268.35h227.232v-208.015c26.364-4.188 51.523-11.957 75.017-22.75v305.774h-302.249v227.232h-681.706v-906.731h-37.504v-75.008h678.14c-18.675 22.394-34.012 47.65-45.306 75.008h-520.322zM971.104 97.405c0-42.872-34.755-77.628-77.628-77.628-42.864 0-77.62 34.755-77.62 77.628 0 42.872 34.755 77.628 77.62 77.628 42.872 0 77.628-34.755 77.628-77.628v0zM1059.315 141.902c-3.913 14.625-9.71 28.49-17.115 41.304l32.524 49.073-46.365 46.365-49.081-32.516c-12.814 7.405-26.671 13.202-41.304 17.115l-11.715 57.691h-65.566l-11.706-57.691c-14.633-3.913-28.49-9.71-41.304-17.115l-49.081 32.516-0.049-0.057-46.308-46.308 32.516-49.073c-7.414-12.814-13.202-26.679-17.123-41.312l-57.683-11.706v-65.566l57.691-11.706c3.913-14.633 9.701-28.498 17.115-41.312l-32.516-49.073 0.049-0.057 46.308-46.308 49.081 32.516c12.814-7.405 26.671-13.194 41.304-17.115l11.715-57.691h65.566l11.706 57.691c14.633 3.921 28.49 9.71 41.304 17.115l49.081-32.516 0.049 0.057 46.308 46.308-32.516 49.073c7.414 12.814 13.202 26.679 17.115 41.312l57.691 11.706v65.566l-57.691 11.715z"  horiz-adv-x="1118" />

    
    <glyph glyph-name="dropdown" unicode="&#58930;" d="M130.124 805.875l675-843.75 675 843.75z"  horiz-adv-x="1638" />

    
    <glyph glyph-name="commit" unicode="&#58933;" d="M93.038 874.423c11.754 13.168 28.735 21.456 47.655 21.58l669.803-0.003c37.157 0 67.218-33.134 67.218-72.923v-512.219h-73.143v512s-658.286-0.293-658.286-0.512v-876.69c0-0.219 329.143-0.512 329.143-0.512v-73.143h-335.872c-36.645 0-66.414 32.914-66.414 73.655v876.69c0 20.334 7.607 38.766 19.895 52.078zM567.369 49.737c-5.367 3.266-11.856 5.2-18.798 5.2-20.201 0-36.578-16.377-36.578-36.578 0-13.26 7.056-24.872 17.618-31.287l183.019-109.806c5.366-3.266 11.854-5.199 18.794-5.199 13.017 0 24.446 6.801 30.927 17.044l182.946 292.721c3.488 5.501 5.559 12.2 5.559 19.383 0 20.198-16.374 36.572-36.572 36.572-13.015 0-24.442-6.799-30.924-17.039l-163.929-262.294-152.064 91.282zM292.571 201.143c0 20.187 15.726 36.571 36.425 36.571h292.864c20.114 0 36.425-16.969 36.425-36.571 0-20.187-15.726-36.571-36.425-36.571h-292.864c-20.069 0.246-36.263 16.492-36.425 36.558zM292.571 420.571c0 20.187 15.726 36.571 36.425 36.571h292.864c20.114 0 36.425-16.969 36.425-36.571 0-20.187-15.726-36.571-36.425-36.571h-292.864c-20.069 0.246-36.263 16.492-36.425 36.558zM292.571 640c0 20.187 15.726 36.571 36.425 36.571h292.864c20.114 0 36.425-16.969 36.425-36.571 0-20.187-15.726-36.571-36.425-36.571h-292.864c-20.069 0.246-36.263 16.492-36.425 36.558z"  horiz-adv-x="1024" />

    
    <glyph glyph-name="comment" unicode="&#58934;" d="M702.687 109.715h360.823v685.575c0-0.137-960 0.137-960 0.137v-685.575l360.823-0.137 119.177-111.772 119.177 111.772zM34.939 795.292c0 0.041 0 0.089 0 0.137 0 37.871 30.7 68.572 68.572 68.572 0 0 0 0 0 0h960c37.852 0 68.572-31.268 68.572-68.708v-685.441c0.001-0.122 0.001-0.267 0.001-0.412 0-37.696-30.539-68.259-68.227-68.297h-334.084l-146.263-137.143-146.263 137.143h-334.080c-37.715 0-68.228 31.268-68.228 68.708v685.441zM309.225 384c0 0 0 0 0 0 37.871 0 68.572 30.7 68.572 68.572 0 37.871-30.7 68.572-68.572 68.572 0 0 0 0 0 0-37.871 0-68.572-30.7-68.572-68.572 0-37.871 30.7-68.572 68.572-68.572zM583.511 384c0 0 0 0 0 0 37.871 0 68.572 30.7 68.572 68.572 0 37.871-30.7 68.572-68.572 68.572 0 0 0 0 0 0-37.871 0-68.572-30.7-68.572-68.572 0-37.871 30.7-68.572 68.572-68.572zM857.796 384c0 0 0 0 0 0 37.871 0 68.572 30.7 68.572 68.572 0 37.871-30.7 68.572-68.572 68.572 0 0 0 0 0 0-37.871 0-68.572-30.7-68.572-68.572 0-37.871 30.7-68.572 68.572-68.572z"  horiz-adv-x="1170" />

    
    <glyph glyph-name="donation" unicode="&#58935;" d="M102.399-26.109c0 1.024 1228.077 0.512 1228.077 0.512 0.717 0 0.717 819.708 0.717 819.708 0-1.024-1228.077-0.512-1228.077-0.512-0.717 0-0.717-819.708-0.717-819.708zM102.399 486.4h1228.794v102.399h-1228.794v-102.399zM0 794.11c0.289 56.334 46.024 101.89 102.398 101.89 0.252 0 0.505-0.001 0.757-0.003l1227.322 0c57.037 0 103.116-46.694 103.116-101.887v-820.22c-0.289-56.334-46.024-101.89-102.398-101.89-0.252 0-0.505 0.001-0.757 0.003l-1227.322-0c-56.498 0.053-102.366 45.49-103.116 101.818l-0.001 820.29zM921.595 230.401c0 28.262 21.913 51.2 51.712 51.2h101.375c28.569 0 51.712-23.757 51.712-51.2 0-28.262-21.913-51.2-51.712-51.2h-101.375c-28.313 0.169-51.255 22.932-51.711 51.16zM307.198 230.401c0 28.262 22.016 51.2 50.176 51.2h309.246c27.833-0.574 50.176-23.273 50.176-51.19 0-0.004-0-0.007-0-0.011 0-28.262-22.016-51.199-50.176-51.199h-309.246c-27.833 0.574-50.176 23.273-50.176 51.19 0 0.004 0 0.007 0 0.011z"  horiz-adv-x="1433" />

    
    <glyph glyph-name="file" unicode="&#58936;" d="M864.064-64l-0.064 672c-1.967 7.675-5.355 14.375-9.895 20.122l-185.433 201.126c-4.879 1.588-9.092 4.011-12.683 7.13l-495.989-4.378v-896h704.064zM96 832c0 35.328 28.864 64 64 64h502.272c17.728 0 42.24-11.008 53.76-23.68l190.4-208.64c11.904-13.12 21.568-38.336 21.568-55.68v-671.872c0-0.038 0-0.083 0-0.128 0-35.324-28.617-63.964-63.933-64l-704.067-0c-0.057-0-0.125-0-0.192-0-35.24 0-63.808 28.568-63.808 63.808 0 0.068 0 0.135 0 0.203l-0 895.99zM320 480c35.346 0 64 28.654 64 64s-28.654 64-64 64c-35.346 0-64-28.654-64-64 0-35.346 28.654-64 64-64zM320 288c35.346 0 64 28.654 64 64s-28.654 64-64 64c-35.346 0-64-28.654-64-64 0-35.346 28.654-64 64-64zM320 96c35.346 0 64 28.654 64 64s-28.654 64-64 64c-35.346 0-64-28.654-64-64 0-35.346 28.654-64 64-64zM480 512h256c17.673 0 32 14.327 32 32s-14.327 32-32 32h-256c-17.673 0-32-14.327-32-32s14.327-32 32-32zM480 320h256c17.673 0 32 14.327 32 32s-14.327 32-32 32h-256c-17.673 0-32-14.327-32-32s14.327-32 32-32zM480 128h256c17.673 0 32 14.327 32 32s-14.327 32-32 32h-256c-17.673 0-32-14.327-32-32s14.327-32 32-32z"  horiz-adv-x="1024" />

    
    <glyph glyph-name="fork" unicode="&#58937;" d="M236.308 659.692c0.003-0 0.006-0 0.009-0 43.503 0 78.769 35.266 78.769 78.769 0 43.503-35.266 78.769-78.769 78.769-0.003 0-0.006-0-0.009-0-43.499-0.005-78.76-35.269-78.76-78.769 0-43.5 35.261-78.764 78.76-78.769zM236.308 580.923c-0.004-0-0.008-0-0.013-0-87.006 0-157.538 70.532-157.538 157.538 0 87.006 70.532 157.538 157.538 157.538 0.004 0 0.009-0 0.013-0 87-0.007 157.525-70.537 157.525-157.538 0-87.002-70.525-157.531-157.525-157.538zM236.308-88.615c-0.004-0-0.008-0-0.013-0-87.006 0-157.538 70.532-157.538 157.538 0 87.006 70.532 157.538 157.538 157.538 0.004 0 0.009-0 0.013-0 87-0.007 157.525-70.537 157.525-157.538 0-87.002-70.525-157.531-157.525-157.538zM236.308-9.846c0 0 0 0 0 0 43.503 0 78.769 35.266 78.769 78.769 0 43.503-35.266 78.769-78.769 78.769-0 0-0 0-0 0-43.503-0-78.769-35.266-78.769-78.769 0-43.503 35.266-78.769 78.769-78.769zM787.692 659.692c0.003-0 0.006-0 0.009-0 43.503 0 78.769 35.266 78.769 78.769 0 43.503-35.266 78.769-78.769 78.769-0.003 0-0.006-0-0.009-0-43.499-0.005-78.76-35.269-78.76-78.769 0-43.5 35.261-78.764 78.76-78.769zM747.678 586.043c-68.217 18.304-117.618 79.581-117.618 152.397 0 87.006 70.532 157.538 157.538 157.538 87.006 0 157.538-70.532 157.538-157.538 0-73.147-49.852-134.651-117.435-152.388-8.905-135.063-120.141-241.436-256.222-241.436-0.031 0-0.061 0-0.092 0l-118.779-0c-99.643 0-176.916-56.241-176.916-118.154v-78.769h-78.769v472.615h78.769v-251.274c46.316 33.95 109.017 54.351 176.916 54.351h118.784c92.948 0 168.724 71.129 176.286 162.658z"  horiz-adv-x="1024" />

    
    <glyph glyph-name="folders" unicode="&#58938;" d="M1024.002 486.741c0-0.341-467.627-0.341-467.627-0.341l-170.667 136.533h-318.123c0.819 0 0.683-682.53 0.683-682.53 0 0.137 955.733-0.137 955.733-0.137v546.475zM0.002 622.797c0 37.683 30.788 68.403 67.584 68.403h342.016l170.667-136.533h444.006c37.547 0 67.994-31.13 67.994-67.925v-546.816c0-37.547-30.379-67.925-68.267-67.925h-955.733c-37.683 0-68.267 31.13-68.267 68.403v682.394zM590.167 688.947l-170.667 138.786h-351.232v-28.126c-0.267-18.702-15.416-33.778-34.121-33.928-18.834 0.192-34.032 15.438-34.145 34.26l-0 28.477c-0 38.025 31.403 67.584 68.267 67.584h375.467l170.667-138.786h409.6c37.547 0 68.267-27.102 68.267-65.399v-34.406c-0.113-18.876-15.288-34.17-34.107-34.474-18.895 0.077-34.161 15.39-34.161 34.269 0 0.096 0 0.192 0.001 0.288l-0 31.456h-433.835z"  horiz-adv-x="1092" />

    
    <glyph glyph-name="readme" unicode="&#58940;" d="M160.841 896c-48.933 0-87.698-32.914-87.698-73.655v-876.69c0-40.741 39.131-73.655 87.333-73.655h703.049c47.323 0 87.333 32.914 87.333 73.655v876.69c0 40.741-39.278 73.655-87.698 73.655h-131.73v-73.143h131.73c10.606 0 14.555-3.291 14.555-0.512v-876.69c0 3.145-4.389-0.512-14.19-0.512h-703.049c-10.386 0-14.19 3.218-14.19 0.512v876.69c0-2.633 3.73 0.512 14.555 0.512h131.73v73.143h-131.73zM292.571 640c-0 0.002-0 0.004-0 0.006 0 19.966 16 36.196 35.879 36.565l367.065 0.001c20.198 0 36.571-16.374 36.571-36.571s-16.374-36.571-36.571-36.571h-367.031c-19.913 0.37-35.913 16.599-35.913 36.566 0 0.002 0 0.004 0 0.006zM365.714 896h292.571v-73.143h-292.571v73.143zM292.571 420.571c-0 0.002-0 0.004-0 0.006 0 19.966 16 36.196 35.879 36.565l367.065 0.001c20.195-0.003 36.565-16.376 36.565-36.571 0-20.196-16.37-36.568-36.565-36.571l-367.031-0c-19.913 0.37-35.913 16.599-35.913 36.566 0 0.002 0 0.004 0 0.006zM292.571 201.143c-0 0.002-0 0.004-0 0.006 0 19.966 16 36.196 35.879 36.565l367.065 0.001c20.195-0.003 36.565-16.376 36.565-36.571 0-20.196-16.37-36.568-36.565-36.571l-367.031-0c-19.913 0.37-35.913 16.599-35.913 36.566 0 0.002 0 0.004 0 0.006z"  horiz-adv-x="1024" />

    
    <glyph glyph-name="search" unicode="&#58941;" d="M815.673 445.497c-0.043-201.645-163.519-365.094-365.17-365.094-201.678 0-365.17 163.492-365.17 365.17 0 128.254 66.119 241.065 166.129 306.207 8.951 6.052 13.833 14.638 13.833 24.365 0 15.709-12.735 28.444-28.444 28.444-5.479 0-10.595-1.549-14.936-4.232-117.071-76.218-193.471-206.59-193.471-354.806 0-233.097 188.962-422.059 422.059-422.059 233.058 0 421.996 188.899 422.059 421.942 0 0.023 0 0.043 0 0.063 0 233.097-188.962 422.059-422.059 422.059-0.020 0-0.040-0-0.060-0-15.706 0-28.441-12.735-28.441-28.444 0-15.709 12.735-28.444 28.444-28.444 0.017 0 0.037 0 0.057 0 201.678 0 365.17-163.492 365.17-365.17 0-0 0-0 0-0zM946.972-91.25c5.154-5.154 12.274-8.342 20.139-8.342 15.729 0 28.48 12.751 28.48 28.48 0 7.865-3.188 14.985-8.342 20.139l-175.445 175.388c-5.11 4.94-12.080 7.985-19.761 7.985-15.709 0-28.444-12.735-28.444-28.444 0-7.681 3.044-14.651 7.992-19.769l175.381-175.437z"  horiz-adv-x="1024" />

    
    <glyph glyph-name="manage" unicode="&#58942;" d="M818.688 59.252c4.745-1.146 10.192-1.803 15.793-1.803 22.214 0 42.013 10.34 54.847 26.469 27.711 35.517 50.379 74.476 67.321 115.901 3.201 7.734 5.060 16.716 5.060 26.132 0 18.536-7.204 35.389-18.965 47.913-26.622 28.747-42.974 67.407-42.974 109.886 0 0.088 0 0.176 0 0.264-0 41.412 15.5 80.277 43.008 110.159 18.618 20.154 24.157 48.826 13.871 74.007-16.943 41.425-39.564 80.384-67.258 115.759-12.926 16.278-32.715 26.623-54.92 26.623-5.614 0-11.074-0.661-16.305-1.91-39.041-8.748-80.42-2.697-116.213 18.016-39.661 23.13-68.232 61.592-77.741 107.058-4.327 11.805-27.029 31.284-54.699 34.6-18.588 2.731-41.787 4.409-65.379 4.409-23.591 0-46.791-1.677-69.486-4.92-24.303-3.419-46.273-22.596-54.372-48.708-14.218-44.852-46.167-80.512-87.406-99.372-9.903-6.802-37.939-14.915-67.871-14.915-12.572 0-24.809 1.431-36.558 4.14-3.662 0.94-9.119 1.601-14.73 1.601-22.183 0-41.955-10.325-54.772-26.432-27.711-35.564-50.332-74.476-67.275-115.901-3.213-7.75-5.080-16.752-5.080-26.189 0-18.528 7.193-35.376 18.939-47.903 27.473-29.844 42.973-68.709 42.973-110.135 0-0.074 0-0.162 0-0.25 0-42.479-16.352-81.139-43.105-110.029-11.61-12.376-18.801-29.216-18.801-47.735 0-9.429 1.864-18.422 5.244-26.632 16.773-40.96 39.394-79.872 67.042-115.293 16.71-21.318 44.125-30.72 70.703-24.809 10.68 2.509 22.942 3.947 35.54 3.947 29.903 0 57.914-8.103 81.956-22.234 38.923-22.716 67.512-61.191 77.021-106.676 4.278-11.462 26.201-30.686 53.151-34.409 20.094-2.914 43.296-4.578 66.886-4.578 23.59 0 46.792 1.664 69.493 4.881 24.389 3.421 46.265 22.597 54.411 48.709 14.18 44.855 46.090 80.531 87.295 99.426 9.901 6.777 37.911 14.88 67.815 14.88 12.598 0 24.861-1.438 36.632-4.16zM583.587-37.236c-2.608-8.954-10.178-15.607-19.46-16.834-17.663-2.559-38.652-4.065-59.993-4.065-21.341 0-42.331 1.506-62.868 4.416-6.961 1.229-14.355 8.057-16.668 16.937-18.162 57.245-59.245 103.127-112.28 127.42-12.696 8.706-48.75 19.137-87.24 19.137-16.163 0-31.896-1.839-47.002-5.32-0.289-0.164-2.232-0.414-4.233-0.414-7.368 0-13.944 3.39-18.253 8.695-43.794 55.587-74.762 123.207-87.352 197.092 25.505-89.781 24.91-86.834 24.91-83.749 0 6.324 2.498 12.065 6.56 16.29 34.322 37.050 55.382 86.829 55.382 141.526 0 0.036-0 0.073-0 0.109 0 53.196-20.015 103.325-55.389 141.679-4.059 4.225-6.558 9.974-6.558 16.307 0 3.093 0.596 6.048 1.68 8.754 29.128 70.042 73.426 128.879 129.047 174.396-63.98-64.521-57.436-61.16-50.108-61.16 2.031 0 4.001-0.258 5.88-0.743 13.55-3.176 29.296-5.017 45.471-5.017 38.473 0 74.514 10.415 105.456 28.578 50.067 29.235 86.843 78.737 99.084 137.255-2.336-9.869 5.218-3.216 14.485-1.983 17.665 2.58 38.653 4.098 59.995 4.098 21.342 0 42.33-1.518 62.861-4.451 6.984-1.209 14.398-8.040 16.72-16.928 18.138-57.262 59.2-103.159 112.219-127.475 28.733-17.578 82.027-25.351 132.855-14.041 9.309 2.095 18.479-1.071 23.924-8.052 43.803-55.542 74.808-123.169 87.428-197.067-25.574 89.848-24.983 86.906-24.983 83.826 0-6.35-2.513-12.112-6.598-16.348-34.322-37.038-55.382-86.805-55.382-141.491 0-0.049 0-0.098 0-0.148-0-53.194 20.015-103.323 55.343-141.677 6.516-7.028 8.378-16.617 4.98-24.902-29.212-70.208-73.544-129.046-129.201-174.552 64.023 64.499 57.461 61.125 50.11 61.125-2.013 0-3.966 0.253-5.831 0.729-13.559 3.183-29.315 5.028-45.501 5.028-38.464 0-74.495-10.419-105.424-28.589-50.047-29.237-86.806-78.726-99.045-137.225zM674.909 384c0 102.825-83.356 186.182-186.182 186.182s-186.182-83.356-186.182-186.182c0-102.825 83.356-186.182 186.182-186.182 102.825 0 186.182 83.356 186.182 186.182zM628.364 384c0-0.004 0-0.008 0-0.012 0-77.119-62.517-139.636-139.636-139.636-77.119 0-139.636 62.517-139.636 139.636 0 0.004 0 0.008 0 0.012 0.007 77.113 62.521 139.624 139.636 139.624 77.115 0 139.63-62.511 139.636-139.624z"  horiz-adv-x="1024" />

    
    <glyph glyph-name="selfrecom" unicode="&#58943;" d="M828.952 847.238h-633.905v-891.124l292.718 167.643c6.959 4.055 15.317 6.449 24.235 6.449s17.276-2.394 24.468-6.574l292.485-167.518v891.124zM146.286 896h731.429v-1024l-365.714 209.432-365.714-209.432v1024zM536.381 686.178v-448.414c-0.136-13.421-10.966-24.267-24.367-24.43-13.472-0-24.395 11.215-24.395 24.43v448.414l-176.908-196.559c-4.467-4.812-10.826-7.813-17.887-7.813-13.465 0-24.381 10.916-24.381 24.381 0 6.139 2.269 11.748 6.014 16.034l219.404 243.781c4.482 4.976 10.947 8.090 18.139 8.090s13.657-3.114 18.12-8.068l219.448-243.831c4.024-4.335 6.494-10.163 6.494-16.568 0-13.465-10.916-24.381-24.381-24.381-7.326 0-13.898 3.231-18.367 8.347l-176.933 196.588z"  horiz-adv-x="1024" />

    
    <glyph glyph-name="release" unicode="&#58944;" d="M904.046 701.44l-58.149-697.271-211.968 115.566c-4.847 2.535-10.586 4.022-16.674 4.022-20.198 0-36.571-16.374-36.571-36.571 0-13.464 7.276-25.229 18.11-31.577l261.439-142.576c5.046-2.795 11.064-4.44 17.466-4.44 19.109 0 34.795 14.656 36.431 33.34l73.153 877.267c0.116 1.094 0.182 2.363 0.182 3.647 0 20.198-16.374 36.571-36.571 36.571-6.248 0-12.129-1.567-17.274-4.328l-876.788-438.396c-12.080-6.139-20.212-18.474-20.212-32.708 0-13.77 7.61-25.763 18.854-32.001l254.871-139.067c5.059-2.812 11.095-4.468 17.518-4.468 20.201 0 36.577 16.376 36.577 36.577 0 13.778-7.618 25.777-18.872 32.014l-193.504 105.567 673.646 336.75-379.319-495.982c-4.7-6.090-7.534-13.83-7.534-22.232 0-0.001 0-0.002 0-0.003l-0-256c-0-0.002-0-0.004-0-0.006 0-20.198 16.374-36.571 36.571-36.571 20.198 0 36.571 16.374 36.571 36.571 0 0.002-0 0.004-0 0.006l0 243.565 392.046 512.731z"  horiz-adv-x="1024" />

    
    <glyph glyph-name="top" unicode="&#58946;" d="M64 864c0 17.664 14.080 32 31.872 32h832.256c17.6 0 31.872-14.848 31.872-32 0-17.664-14.080-32-31.872-32h-832.256c-17.561 0.215-31.73 14.43-31.872 31.988zM840.384 298.368c5.875-6.398 14.279-10.394 23.616-10.394 17.687 0 32.026 14.338 32.026 32.026 0 8.35-3.196 15.954-8.431 21.655l-351.979 383.977c-5.871 6.405-14.276 10.406-23.616 10.406-9.34 0-17.745-4.001-23.595-10.383l-352.021-384.024c-5.214-5.678-8.41-13.282-8.41-21.632 0-17.687 14.338-32.026 32.026-32.026 9.337 0 17.741 3.996 23.595 10.371l328.405 358.295 328.384-358.272zM480 704v-768c0-17.673 14.327-32 32-32s32 14.327 32 32v768c0 17.673-14.327 32-32 32s-32-14.327-32-32z"  horiz-adv-x="1024" />

    
    <glyph glyph-name="tag" unicode="&#58947;" d="M87.327 759.215v-349.425c0.018-7.77 3.184-14.797 8.29-19.878l454.141-454.197c5.093-5.105 12.133-8.262 19.912-8.262s14.82 3.157 19.912 8.262l349.313 349.37c5.105 5.093 8.262 12.133 8.262 19.912s-3.158 14.82-8.262 19.912l-454.107 454.163c-5.091 5.135-12.144 8.317-19.942 8.325h-349.452c-15.533 0-28.125-12.592-28.125-28.125zM143.577 731.090h309.656l426.038-426.094-309.6-309.6-426.094 426.038v309.712zM404.745 405.628c0 0 0 0 0 0 35.509 0 64.294 28.785 64.294 64.294 0 35.509-28.785 64.294-64.294 64.294 0 0 0 0 0 0-35.509 0-64.294-28.785-64.294-64.294 0-35.509 28.785-64.294 64.294-64.294z"  horiz-adv-x="1024" />

    
    <glyph glyph-name="annex" unicode="&#58949;" d="M219.46 603.46v-439.030c3.742-158.704 133.282-285.927 292.537-285.927 159.358 0 288.962 127.388 292.537 285.887l0.006 511.693c0.001 0.217 0.001 0.474 0.001 0.731 0 121.053-98.133 219.186-219.186 219.186-0.078 0-0.155-0-0.233-0-121.173 0-219.393-98.001-219.393-219.113v-511.799c-0-0.011-0-0.024-0-0.037 0-80.783 65.487-146.27 146.27-146.27 80.77 0 146.249 65.466 146.27 146.231l0 475.014c-0.003 20.193-16.374 36.561-36.568 36.561-20.194 0-36.564-16.368-36.568-36.561l-0-475.012c-0.021-40.376-32.757-73.098-73.135-73.098-40.391 0-73.135 32.744-73.135 73.135 0 0.013 0 0.026 0 0.039l-0 511.797c-0 80.741 65.383 145.978 146.27 145.978 81.18 0 146.27-65.383 146.27-146.782v-511.36c0-0.043 0-0.095 0-0.146 0-121.174-98.231-219.405-219.405-219.405-121.123 0-219.322 98.148-219.405 219.251l-0 439.038c-0.003 20.193-16.374 36.561-36.568 36.561-20.194 0-36.564-16.368-36.568-36.561z"  horiz-adv-x="1024" />

    
    <glyph glyph-name="star" unicode="&#58950;" d="M328.277 254.976c0.393 2.174 0.617 4.676 0.617 7.23 0 11.984-4.94 22.814-12.896 30.564l-181.599 176.99 250.88 36.437c14.803 2.2 26.967 11.736 32.817 24.73l111.567 225.98 112.213-227.328c6.465-12.934 18.958-22.014 33.695-23.59l249.271-36.229-181.504-176.981c-7.965-7.759-12.905-18.589-12.905-30.573 0-2.554 0.224-5.056 0.655-7.487l42.885-249.599-224.427 118.016c-5.763 3.097-12.611 4.916-19.883 4.916-7.272 0-14.119-1.819-20.111-5.028l-224.198-117.904 42.923 249.856zM810.667-110.677c5.745-3.072 12.566-4.877 19.809-4.877 23.564 0 42.667 19.103 42.667 42.667 0 2.537-0.221 5.022-0.646 7.437l-53.637 312.746 227.413 221.696c7.96 7.759 12.898 18.585 12.898 30.566 0 21.401-15.756 39.122-36.301 42.195l-314.517 45.682-140.459 284.757c-7.137 14.17-21.568 23.72-38.229 23.72s-31.093-9.551-38.118-23.476l-140.826-285.002-314.027-45.568c-20.779-3.102-36.535-20.823-36.535-42.224 0-11.98 4.938-22.807 12.889-30.557l227.337-221.705-53.675-313.003c-0.393-2.174-0.617-4.676-0.617-7.23 0-23.564 19.103-42.667 42.667-42.667 7.28 0 14.134 1.823 20.131 5.038l280.86 147.686 280.917-147.883z"  horiz-adv-x="1109" />

    
    <glyph glyph-name="issue" unicode="&#58952;" d="M548.571-54.857c222.176 0 402.286 180.109 402.286 402.286s-180.109 402.286-402.286 402.286c-222.176 0-402.286-180.109-402.286-402.286 0-222.176 180.109-402.286 402.286-402.286zM548.571-128c-0 0-0 0-0 0-262.572 0-475.429 212.857-475.429 475.429 0 262.572 212.857 475.429 475.429 475.429 0 0 0 0 0-0 262.572-0 475.429-212.857 475.429-475.429 0-262.572-212.857-475.429-475.429-475.429zM548.571 18.286c0.002-0 0.004-0 0.006-0 20.198 0 36.571 16.374 36.571 36.571 0 20.198-16.374 36.571-36.571 36.571-0.002 0-0.004-0-0.006-0-20.195-0.003-36.565-16.376-36.565-36.571 0-20.196 16.37-36.568 36.565-36.571zM512 639.781c0 20.334 16.969 36.791 36.571 36.791 20.187 0 36.571-17.042 36.571-36.791v-438.418c-0.162-20.178-16.414-36.506-36.547-36.791-20.184 0.286-36.435 16.615-36.596 36.778l-0 438.431z"  horiz-adv-x="1024" />

    
    <glyph glyph-name="pull-request" unicode="&#58953;" d="M256 603.429c0 0 0 0 0 0 40.396 0 73.143 32.747 73.143 73.143 0 40.396-32.747 73.143-73.143 73.143-0 0-0 0-0 0-40.396-0-73.143-32.747-73.143-73.143 0-40.396 32.747-73.143 73.143-73.143zM731.429 233.106v370.103c0.004 0.197 0.006 0.429 0.006 0.661 0 19.955-16.177 36.133-36.133 36.133-0.156 0-0.313-0.001-0.469-0.003l-72.973 0v-62.903c0-19.529-13.678-27.355-30.574-16.823l-158.281 99.035c-16.091 10.021-16.823 27.575 0 38.107l158.281 99.109c16.091 10.021 30.574 2.926 30.574-16.823v-66.56h72.997c60.855 0 109.714-48.64 109.714-109.934v-370.103c63.596-16.822 109.714-73.845 109.714-141.641 0-80.791-65.494-146.286-146.286-146.286-80.791 0-146.286 65.494-146.286 146.286 0 67.795 46.118 124.819 108.694 141.41zM219.429 534.894c-63.596 16.822-109.714 73.845-109.714 141.641 0 80.791 65.494 146.286 146.286 146.286 80.791 0 146.286-65.494 146.286-146.286 0-67.795-46.118-124.819-108.694-141.41l-1.021-302.018c63.596-16.822 109.714-73.845 109.714-141.641 0-80.791-65.494-146.286-146.286-146.286-80.791 0-146.286 65.494-146.286 146.286 0 67.795 46.118 124.819 108.694 141.41l1.021 302.018zM768 18.286c40.396 0 73.143 32.747 73.143 73.143s-32.747 73.143-73.143 73.143c-40.396 0-73.143-32.747-73.143-73.143 0-40.396 32.747-73.143 73.143-73.143zM256 18.286c40.396 0 73.143 32.747 73.143 73.143s-32.747 73.143-73.143 73.143c-40.396 0-73.143-32.747-73.143-73.143 0-40.396 32.747-73.143 73.143-73.143z"  horiz-adv-x="1024" />

    
    <glyph glyph-name="settings" unicode="&#58954;" d="M1009.371 171.008c-34.743 57.71-34.158 58.807-34.158 58.807s-119.954-33.573-142.263 81.042h-69.486s-19.163-114.761-141.678-80.823c-35.401-58.807-36.571-60.709-36.645-60.709 0 0 95.89-66.779 0-157.477l37.23-61.001s105.911 45.568 140.507-78.848h70.217s22.089 114.322 141.166 80.457c33.938 57.783 34.45 58.295 34.45 58.295s-89.893 77.312 0.585 160.183zM797.257 0c-48.786 0-88.357 40.96-88.357 91.429s39.497 91.429 88.357 91.429c48.786 0 88.357-40.96 88.357-91.429s-39.497-91.429-88.357-91.429zM145.993 822.857c0.293 0 0.293-877.202 0.293-877.202 0-0.512 329.289-0.512 329.289-0.512 20.114 0 36.425-16.969 36.425-36.571 0-20.187-15.726-36.571-36.498-36.571h-329.874c-40.095 0.289-72.488 32.859-72.488 72.995 0 0.232 0.001 0.464 0.003 0.695l-0 876.655c-0.001 0.152-0.002 0.332-0.002 0.513 0 40.293 32.582 72.977 72.836 73.142l658.887 0c40.229 0 72.85-32.037 72.85-73.362v-402.725c-0.003-20.195-16.376-36.565-36.571-36.565-20.196 0-36.568 16.37-36.571 36.565l-0 402.725-658.578 0.219zM292.571 603.429h365.714c20.198 0 36.571 16.374 36.571 36.571 0 20.198-16.374 36.571-36.571 36.571h-365.714c-20.198-0-36.571-16.374-36.571-36.571 0-20.198 16.374-36.571 36.571-36.571zM292.571 457.143h365.714c20.195 0.003 36.565 16.376 36.565 36.571 0 20.196-16.37 36.568-36.565 36.571l-365.715 0c-20.195-0.003-36.565-16.376-36.565-36.571 0-20.196 16.37-36.568 36.565-36.571zM292.571 310.857h365.714c20.195 0.003 36.565 16.376 36.565 36.571 0 20.196-16.37 36.568-36.565 36.571l-365.715 0c-20.195-0.003-36.565-16.376-36.565-36.571 0-20.196 16.37-36.568 36.565-36.571zM292.571 164.571h219.429c20.195 0.003 36.565 16.376 36.565 36.571 0 20.196-16.37 36.568-36.565 36.571l-219.429 0c-20.195-0.003-36.565-16.376-36.565-36.571 0-20.196 16.37-36.568 36.565-36.571z"  horiz-adv-x="1024" />

    
    <glyph glyph-name="statistics" unicode="&#58955;" d="M146.286 786.286c-0.003 20.195-16.376 36.565-36.571 36.565-20.196 0-36.568-16.37-36.571-36.565l-0-768c0-40.375 32.914-73.143 73.143-73.143h768c0.002-0 0.004-0 0.006-0 20.198 0 36.571 16.374 36.571 36.571 0 20.198-16.374 36.571-36.571 36.571-0.002 0-0.004-0-0.006-0l-768 0v768zM365.714 91.429v292.571c-0.003 20.195-16.376 36.565-36.571 36.565-20.196 0-36.568-16.37-36.571-36.565l-0-292.572c-0-0.002-0-0.004-0-0.006 0-20.198 16.374-36.571 36.571-36.571 20.198 0 36.571 16.374 36.571 36.571 0 0.002-0 0.004-0 0.006zM585.143 91.429v585.143c-0.003 20.195-16.376 36.565-36.571 36.565-20.196 0-36.568-16.37-36.571-36.565l-0-585.143c-0-0.002-0-0.004-0-0.006 0-20.198 16.374-36.571 36.571-36.571 20.198 0 36.571 16.374 36.571 36.571 0 0.002-0 0.004-0 0.006zM804.571 91.429v438.857c-0 20.198-16.374 36.571-36.571 36.571s-36.571-16.374-36.571-36.571c0-0 0-0 0-0v-438.857c0-20.198 16.374-36.571 36.571-36.571s36.571 16.374 36.571 36.571c0 0 0 0 0 0z"  horiz-adv-x="1024" />

    
    <glyph glyph-name="service" unicode="&#58956;" d="M476.306 10.386c3.752-16.519 18.311-28.665 35.707-28.665 15.487 0 28.726 9.627 34.059 23.223l148.346 385.711 75.922-202.386c5.359-13.965 18.658-23.698 34.231-23.698 0 0 0 0 0 0l182.857-0c0.002-0 0.004-0 0.006-0 20.198 0 36.571 16.374 36.571 36.571 0 20.198-16.374 36.571-36.571 36.571-0.002 0-0.004-0-0.006-0l-157.476 0-100.864 268.873c-5.355 13.972-18.658 23.712-34.236 23.712-15.495 0-28.74-9.637-34.067-23.244l-139.423-362.452-119.954 539.867c-8.119 36.645-59.611 38.766-70.656 2.853l-138.313-449.609h-155.867c-20.195-0.003-36.565-16.376-36.565-36.571 0-20.196 16.37-36.568 36.565-36.571l182.857-0c0.002-0 0.005-0 0.007-0 16.361 0 30.212 10.743 34.885 25.56l105.689 343.518 116.297-523.264z"  horiz-adv-x="1024" />

    
    <glyph glyph-name="wiki" unicode="&#58957;" d="M73.143 91.063c0 0.731 877.202 0.366 877.202 0.366 0.512 0 0.512 585.509 0.512 585.509 0-0.731-877.202-0.366-877.202-0.366-0.512 0-0.512-585.509-0.512-585.509zM0 676.937c0.207 40.239 32.874 72.779 73.142 72.779 0.18 0 0.361-0.001 0.541-0.002l876.663 0c40.741 0 73.655-33.353 73.655-72.777v-585.874c-0.207-40.239-32.874-72.779-73.142-72.779-0.18 0-0.361 0.001-0.541 0.002l-876.663-0c-40.356 0.038-73.119 32.493-73.654 72.727l-0.001 585.924zM475.429 676.571v-585.143h73.143v585.143h-73.143zM182.857 530.286h182.857c20.195 0.003 36.565 16.376 36.565 36.571 0 20.196-16.37 36.568-36.565 36.571l-182.857 0c-20.195-0.003-36.565-16.376-36.565-36.571 0-20.196 16.37-36.568 36.565-36.571zM182.857 384h182.857c20.195 0.003 36.565 16.376 36.565 36.571 0 20.196-16.37 36.568-36.565 36.571l-182.857 0c-20.195-0.003-36.565-16.376-36.565-36.571 0-20.196 16.37-36.568 36.565-36.571zM182.857 237.714h182.857c20.195 0.003 36.565 16.376 36.565 36.571 0 20.196-16.37 36.568-36.565 36.571l-182.857 0c-20.195-0.003-36.565-16.376-36.565-36.571 0-20.196 16.37-36.568 36.565-36.571zM658.286 530.286h182.857c0.002-0 0.004-0 0.006-0 20.198 0 36.571 16.374 36.571 36.571 0 20.198-16.374 36.571-36.571 36.571-0.002 0-0.004-0-0.006-0l-182.857 0c-20.195-0.003-36.565-16.376-36.565-36.571 0-20.196 16.37-36.568 36.565-36.571zM658.286 384h182.857c0.002-0 0.004-0 0.006-0 20.198 0 36.571 16.374 36.571 36.571 0 20.198-16.374 36.571-36.571 36.571-0.002 0-0.004-0-0.006-0l-182.857 0c-20.195-0.003-36.565-16.376-36.565-36.571 0-20.196 16.37-36.568 36.565-36.571zM658.286 237.714h182.857c0.002-0 0.004-0 0.006-0 20.198 0 36.571 16.374 36.571 36.571 0 20.198-16.374 36.571-36.571 36.571-0.002 0-0.004-0-0.006-0l-182.857 0c-20.195-0.003-36.565-16.376-36.565-36.571 0-20.196 16.37-36.568 36.565-36.571z"  horiz-adv-x="1024" />

    
    <glyph glyph-name="refresh" unicode="&#58958;" d="M141.21 67.053h663.328c64.607 0 121.899 63.875 121.899 134.089v280.369c0 0 0 0 0 0 0 13.465 10.915 24.38 24.38 24.38 13.465 0 24.38-10.915 24.38-24.38 0-0 0-0 0-0l-0-280.369c0-96.057-77.869-182.849-170.659-182.849h-663.328l104.639-104.639c4.422-4.416 7.157-10.519 7.157-17.261 0-13.472-10.921-24.393-24.393-24.393-6.73 0-12.823 2.725-17.237 7.133l-120.339 120.388c-11.050 11.041-17.886 26.298-17.886 43.152s6.836 32.112 17.886 43.152l120.34 120.388c4.413 4.407 10.507 7.132 17.237 7.132 13.472 0 24.393-10.921 24.393-24.393 0-6.742-2.735-12.845-7.157-17.261l-104.639-104.639zM891.916 700.93h-672.495c-70.555 0-121.899-45.395-121.899-109.71v-304.749c0-13.465-10.915-24.38-24.38-24.38s-24.38 10.915-24.38 24.38l0 304.749c-0 92.644 74.407 158.469 170.659 158.469h672.544l-104.687 104.639c-4.417 4.417-7.15 10.52-7.15 17.261 0 13.482 10.929 24.411 24.411 24.411 6.741 0 12.843-2.732 17.261-7.15l120.339-120.388c11.050-11.041 17.886-26.298 17.886-43.152 0-16.854-6.836-32.112-17.886-43.152l-120.34-120.388c-4.417-4.417-10.52-7.15-17.261-7.15-13.482 0-24.411 10.929-24.411 24.411 0 6.741 2.732 12.843 7.15 17.261l104.639 104.639z"  horiz-adv-x="1024" />

    
    <glyph glyph-name="CM" unicode="&#58959;" d="M828.952 749.714h-195.048v97.768c0-0.341-487.522-0.244-487.522-0.244l-0.098-828.952h320.951c-18.008 43.284-28.467 93.564-28.467 146.286 0 215.444 174.652 390.095 390.095 390.095 0.031 0 0.062-0 0.093-0l-0.005 195.048zM24.381-30.476c-13.4 0.163-24.219 10.983-24.381 24.368-0 13.471 10.63 24.394 24.381 24.394h73.143v829.196c0 26.819 22.235 48.518 48.859 48.518h487.424c26.917 0 48.859-21.943 48.859-48.518v-49.006h146.53c26.819 0 48.518-22.187 48.518-48.762v-247.223c-14.68 2.237-31.618 3.514-48.853 3.514-188.513 0-341.333-152.82-341.333-341.333 0-73.040 22.941-140.721 62.011-196.232l-525.157 1.083zM974.75-17.408c-4.782 1.121-10.272 1.764-15.912 1.764-13.429 0-26.006-3.643-36.799-9.995-17.453-10.195-30.27-27.456-34.528-47.859-3.995-11.592-19.257-24.953-38.177-27.586-11.031-1.601-23.768-2.516-36.718-2.516-12.95 0-25.687 0.914-38.149 2.682-17.967 2.686-33.485 16.607-38.638 34.874-6.079 19.217-20.393 35.223-38.878 43.701-4.443 3.038-17.003 6.671-30.413 6.671-5.675 0-11.198-0.651-16.498-1.881-2.774-0.681-6.521-1.127-10.373-1.127-15.525 0-29.359 7.241-38.309 18.53-26.652 33.805-45.462 74.842-53.115 119.683 13.869-50.624 12.56-44.327 12.56-37.724 0 12.891 4.992 24.615 13.148 33.346 11.942 12.885 19.284 30.234 19.284 49.298 0 0.042-0 0.083-0 0.125 0 0.013 0 0.036 0 0.060 0 19.089-7.362 36.458-19.401 49.424-8.071 8.66-13.052 20.379-13.052 33.261 0 6.625 1.317 12.943 3.704 18.705 9.146 22.399 21.58 43.756 36.745 63.164 11.703 14.97 30.866 21.455 49.298 17.408 17.798-3.998 36.328-1.268 52.419 7.997 16.091 9.314 27.746 24.088 33.158 41.496 5.713 18.423 21.568 31.992 40.882 34.274 9.981 1.47 22.708 2.39 35.65 2.39 12.942 0 25.669-0.92 38.12-2.697 17.99-2.654 33.532-16.577 38.685-34.856 5.188-16.518 16.793-31.293 32.885-40.558 16.091-9.314 34.621-12.044 52.419-8.046 18.432 4.096 37.595-2.438 49.298-17.408 15.165-19.407 27.599-40.765 36.913-63.537 7.217-17.603 3.316-37.644-9.557-51.639-11.968-12.914-19.31-30.262-19.31-49.326 0-0.042 0-0.083 0-0.125-0-18.572 6.924-36.029 19.261-49.438 12.922-13.946 16.823-33.987 9.606-51.688-9.265-22.723-21.748-44.081-36.913-63.488-11.703-14.921-30.818-21.455-49.298-17.359zM985.381 30.135c12.678 15.799 22.869 33.256 30.427 51.785-20.167 21.612-32.548 50.716-32.548 82.712 0 31.845 12.264 60.825 32.327 82.475-13.461 33.458-34.243 61.597-60.518 83.331 22.432-33.22 13.106-34.331 3.521-34.331-54.238 0-100.17 35.564-115.749 84.644-8.956 2.382-18.998 3.252-29.244 3.252-0.328 0-0.655-0.001-0.982-0.003-10.092 0-20.088-0.682-30.036-2.048-15.713-50.137-61.751-85.879-116.136-85.879-9.408 0-18.566 1.070-27.359 3.094-11.861-15.957-22.052-33.414-29.61-51.944 20.155-21.616 32.528-50.718 32.528-82.71 0-31.866-12.276-60.864-32.356-82.525 7.386-18.598 17.577-36.054 30.011-52 8.119 1.935 17.44 3.045 27.020 3.045 54.255 0 100.199-35.586 115.763-84.69 10.183-2.518 20.179-3.201 30.224-3.201 9.996 0 19.992 0.683 29.94 2.048 15.687 50.149 61.722 85.908 116.109 85.908 9.453 0 18.653-1.080 27.485-3.124zM885.809 164.571c0-0 0-0 0-0 0-40.396-32.747-73.143-73.143-73.143-40.396 0-73.143 32.747-73.143 73.143 0 0 0 0 0 0 0 40.396 32.747 73.143 73.143 73.143 40.396 0 73.143-32.747 73.143-73.143zM934.571 164.571c0 67.326-54.579 121.905-121.905 121.905s-121.905-54.579-121.905-121.905c0-67.326 54.579-121.905 121.905-121.905 67.326 0 121.905 54.579 121.905 121.905zM195.048 262.095h146.286v-146.286h-146.286v146.286zM243.81 164.571h48.762v48.762h-48.762v-48.762zM195.048 505.905h146.286v-146.286h-146.286v146.286zM243.81 408.381h48.762v48.762h-48.762v-48.762zM195.048 749.714h146.286v-146.286h-146.286v146.286zM243.81 652.19h48.762v48.762h-48.762v-48.762zM438.857 749.714h146.286v-146.286h-146.286v146.286zM487.619 652.19h48.762v48.762h-48.762v-48.762z"  horiz-adv-x="1072" />

    
    <glyph glyph-name="organization" unicode="&#58961;" d="M273.067 42.667c0 56.554-45.846 102.4-102.4 102.4s-102.4-45.846-102.4-102.4c0-56.554 45.846-102.4 102.4-102.4 56.554 0 102.4 45.846 102.4 102.4zM682.667 691.2c0 75.405-61.128 136.533-136.533 136.533s-136.533-61.128-136.533-136.533c0-75.405 61.128-136.533 136.533-136.533 75.405 0 136.533 61.128 136.533 136.533zM0 42.667c-0 0.004-0 0.008-0 0.013 0 94.257 76.41 170.667 170.667 170.667 94.257 0 170.667-76.41 170.667-170.667 0-0.005-0-0.009-0-0.014-0.007-94.25-76.415-170.653-170.667-170.653-94.252 0-170.659 76.403-170.667 170.653zM341.333 691.2c0 0 0 0 0 0 0 113.108 91.692 204.8 204.8 204.8 113.108 0 204.8-91.692 204.8-204.8 0-0 0-0 0-0 0-113.108-91.692-204.8-204.8-204.8-113.108 0-204.8 91.692-204.8 204.8zM750.933 42.667c0 0 0 0 0 0 0 94.257 76.41 170.667 170.667 170.667 94.257 0 170.667-76.41 170.667-170.667 0-0 0-0 0-0-0-94.257-76.41-170.667-170.667-170.667-94.257 0-170.667 76.41-170.667 170.667zM1024 42.667c0 0 0 0 0 0 0 56.554-45.846 102.4-102.4 102.4-56.554 0-102.4-45.846-102.4-102.4 0-0 0-0 0-0 0-56.554 45.846-102.4 102.4-102.4 56.554 0 102.4 45.846 102.4 102.4zM375.467 42.667c-0 0.004-0 0.008-0 0.013 0 94.257 76.41 170.667 170.667 170.667 94.257 0 170.667-76.41 170.667-170.667 0-0.005-0-0.009-0-0.014-0.007-94.25-76.415-170.653-170.667-170.653-94.252 0-170.659 76.403-170.667 170.653zM648.533 42.667c0 56.554-45.846 102.4-102.4 102.4s-102.4-45.846-102.4-102.4c0-56.554 45.846-102.4 102.4-102.4 56.554 0 102.4 45.846 102.4 102.4zM170.667 418.133h750.933c18.842 0 34.133-15.838 34.133-34.133 0-18.842-15.633-34.133-34.133-34.133h-750.933c-18.775 0.191-33.944 15.36-34.133 34.117-0 18.858 15.633 34.149 34.133 34.149zM170.667 418.133c18.842 0 34.133-14.677 34.133-33.451v-206.165c-0.383-18.555-15.515-33.451-34.127-33.451-0.002 0-0.005 0-0.007 0-0.162-0.003-0.354-0.004-0.546-0.004-18.503 0-33.512 14.962-33.587 33.448l-0 206.173c0.383 18.555 15.515 33.451 34.127 33.451 0.002 0 0.005-0 0.007-0zM921.6 418.133c18.842 0 34.133-14.677 34.133-33.451v-206.165c-0.383-18.555-15.515-33.451-34.127-33.451-0.002 0-0.005 0-0.007 0-0.162-0.003-0.354-0.004-0.546-0.004-18.503 0-33.512 14.962-33.587 33.448l-0 206.173c0.383 18.555 15.515 33.451 34.127 33.451 0.002 0 0.005-0 0.007-0zM546.133 554.667c0.002 0 0.004 0 0.006 0 18.635 0 33.783-14.934 34.127-33.487l0-342.594c-0-18.851-15.282-34.133-34.133-34.133-18.851 0-34.133 15.282-34.133 34.133l0 342.562c0.345 18.585 15.493 33.519 34.128 33.519 0.002 0 0.004-0 0.006-0z"  horiz-adv-x="1092" />

    
    <glyph glyph-name="edit" unicode="&#58963;" d="M78.765-49.235v787.654h315.14c21.629 0.264 39.086 17.75 39.304 39.365 0 0.019 0 0.021 0 0.023 0 21.75-17.632 39.383-39.383 39.383-0.222 0-0.443-0.002-0.663-0.005l-353.151 0c-0.025 0-0.054 0-0.083 0-21.861 0-39.619-17.566-39.93-39.354l-0-866.449c0-21.739 18.037-39.383 39.383-39.383h866.42c21.739 0 39.383 17.013 39.383 39.383v433.21c0 21.739-18.274 39.383-39.383 39.383-0.001 0-0.003 0-0.005 0-21.75 0-39.383-17.632-39.383-39.383 0-0.222 0.002-0.443 0.005-0.663l-0-393.164h-787.654zM405.327 333.093c-7.136-7.136-11.549-16.994-11.549-27.883 0-21.778 17.655-39.432 39.432-39.432 10.889 0 20.747 4.414 27.883 11.549l551.358 551.358c7.136 7.136 11.549 16.994 11.549 27.883 0 21.778-17.655 39.432-39.432 39.432-10.889 0-20.747-4.414-27.883-11.549l-551.358-551.358z"  horiz-adv-x="1024" />

    
    <glyph glyph-name="code" unicode="&#58964;" d="M314.24 685.632c3.622 5.119 5.79 11.49 5.79 18.368 0 17.69-14.34 32.030-32.030 32.030-10.812 0-20.373-5.357-26.173-13.562l-224.067-320.1c-3.626-5.118-5.797-11.489-5.797-18.368s2.17-13.25 5.864-18.468l223.933-319.9c5.867-8.305 15.428-13.662 26.24-13.662 17.69 0 32.030 14.34 32.030 32.030 0 6.878-2.168 13.249-5.857 18.468l-211.133 301.532 211.2 301.632zM414.080-74.752l320 896c0.814 2.686 1.282 5.772 1.282 8.968 0 17.673-14.327 32-32 32-13.144 0-24.438-7.925-29.362-19.258l-320.080-896.207c-0.814-2.686-1.282-5.772-1.282-8.968 0-17.673 14.327-32 32-32 13.144 0 24.438 7.925 29.362 19.258zM773.76 82.368c-3.622-5.119-5.79-11.49-5.79-18.368 0-17.69 14.34-32.030 32.030-32.030 10.812 0 20.373 5.357 26.173 13.562l224.067 320.1c3.626 5.118 5.797 11.489 5.797 18.368 0 6.879-2.17 13.25-5.864 18.468l-223.933 319.9c-5.867 8.305-15.428 13.662-26.24 13.662-17.69 0-32.030-14.34-32.030-32.030 0-6.878 2.168-13.249 5.857-18.468l211.133-301.532-211.2-301.632z"  horiz-adv-x="1088" />

    
    <glyph glyph-name="projects" unicode="&#58966;" d="M68.267 7.987c0-37.069 30.583-67.721 67.857-67.721h820.019c0-0 0-0 0-0 37.428 0 67.779 30.303 67.857 67.713l0 478.966c-0.231 37.356-30.491 67.567-67.843 67.72l-820.033 0c-0 0-0 0-0 0-37.428 0-67.779-30.303-67.857-67.713l-0-478.966zM136.124 622.933h820.019c75.162 0 136.124-61.44 136.124-135.987v-478.959c0-75.093-61.099-135.987-136.124-135.987h-820.019c-75.162 0-136.124 61.44-136.124 135.987v478.959c0 75.093 61.099 135.987 136.124 135.987zM170.667 759.467h750.933c18.842 0 34.133-15.838 34.133-34.133 0-18.842-15.633-34.133-34.133-34.133h-750.933c-18.775 0.191-33.944 15.36-34.133 34.117-0 18.858 15.633 34.149 34.133 34.149zM239.616 896h613.035c0.002 0 0.004 0 0.007 0 18.988 0 34.426-15.201 34.809-34.098 0.001-18.877-15.564-34.169-34.815-34.169h-613.035c-0.002-0-0.004-0-0.007-0-18.988 0-34.426 15.201-34.809 34.098-0.001 18.877 15.564 34.169 34.815 34.169z"  horiz-adv-x="1092" />

    
    <glyph glyph-name="watch" unicode="&#58967;" d="M716.8 896c-399.36 0-716.8-358.4-716.8-512s317.44-512 716.8-512 716.8 358.4 716.8 512-317.44 512-716.8 512zM1157.12 148.48c-133.12-112.64-286.72-174.080-440.32-174.080s-307.2 61.44-440.32 174.080c-102.4 92.16-174.080 194.56-174.080 235.52s71.68 143.36 174.080 235.52c133.12 112.64 286.72 174.080 440.32 174.080s307.2-61.44 440.32-174.080c102.4-92.16 174.080-194.56 174.080-235.52s-71.68-143.36-174.080-235.52zM716.8 691.2c-174.080 0-307.2-133.12-307.2-307.2s133.12-307.2 307.2-307.2 307.2 133.12 307.2 307.2-133.12 307.2-307.2 307.2zM716.8 179.2c-112.64 0-204.8 92.16-204.8 204.8s92.16 204.8 204.8 204.8 204.8-92.16 204.8-204.8-92.16-204.8-204.8-204.8z"  horiz-adv-x="1433" />

    
    <glyph glyph-name="add" unicode="&#58969;" d="M465.455 128v209.455h-418.816c-25.621 0.259-46.328 20.935-46.638 46.519-0 25.719 21.411 46.571 46.638 46.571h418.816v418.816c0 25.786 21.597 46.639 46.545 46.639 25.693 0 46.545-21.411 46.545-46.639v-418.816h418.816c25.786 0 46.639-21.597 46.639-46.545 0-25.693-21.411-46.545-46.639-46.545h-418.816v-418.816c-0.259-25.621-20.935-46.328-46.519-46.638-25.719-0-46.571 21.411-46.571 46.638v209.455z"  horiz-adv-x="1024" />

    
    <glyph glyph-name="close-circle" unicode="&#58971;" d="M512-49.231c239.267 0 433.231 193.964 433.231 433.231s-193.964 433.231-433.231 433.231c-239.267 0-433.231-193.964-433.231-433.231 0-239.267 193.964-433.231 433.231-433.231zM512-128c-282.77 0-512 229.23-512 512s229.23 512 512 512c282.77 0 512-229.23 512-512 0-282.77-229.23-512-512-512zM287.193 553.039l393.846-393.846c7.136-7.136 16.995-11.55 27.884-11.55 21.779 0 39.434 17.655 39.434 39.434 0 10.889-4.414 20.748-11.55 27.884l-393.846 393.846c-7.136 7.136-16.995 11.55-27.884 11.55-21.779 0-39.434-17.655-39.434-39.434 0-10.889 4.414-20.748 11.55-27.884zM681.039 608.807l-393.846-393.846c-7.136-7.136-11.55-16.995-11.55-27.884 0-21.779 17.655-39.434 39.434-39.434 10.889 0 20.748 4.414 27.884 11.55l393.846 393.846c7.136 7.136 11.55 16.995 11.55 27.884 0 21.779-17.655 39.434-39.434 39.434-10.889 0-20.748-4.414-27.884-11.55z"  horiz-adv-x="1024" />

    
    <glyph glyph-name="checkmark-circle" unicode="&#58972;" d="M512-49.231c239.267 0 433.231 193.964 433.231 433.231s-193.964 433.231-433.231 433.231c-239.267 0-433.231-193.964-433.231-433.231 0-239.267 193.964-433.231 433.231-433.231zM512-128c-282.77 0-512 229.23-512 512s229.23 512 512 512c282.77 0 512-229.23 512-512 0-282.77-229.23-512-512-512zM264.192 431.892c-7.133 7.143-16.993 11.562-27.884 11.562-21.764 0-39.407-17.643-39.407-39.407 0-10.872 4.403-20.716 11.523-27.845l217.56-217.56c7.127-7.125 16.971-11.531 27.845-11.531s20.718 4.407 27.845 11.531l315.628 315.628c7.143 7.133 11.562 16.993 11.562 27.884 0 21.764-17.643 39.407-39.407 39.407-10.872 0-20.716-4.403-27.845-11.523l-287.901-287.822-189.519 189.676z"  horiz-adv-x="1024" />

    
    <glyph glyph-name="delete" unicode="&#58973;" d="M157.538 30.247c0-44.032 35.21-79.478 78.139-79.478h552.645c42.614 0 78.139 35.682 78.139 79.478v708.214h-708.923v-708.214zM78.769 738.462h866.462v-721.447c0-80.108-70.892-145.014-156.908-145.014h-552.645c-86.646 0-156.908 65.142-156.908 145.014v721.447zM393.846 896h236.308v-78.769h-236.308v78.769zM315.077 580.923v-393.846c0-21.752 17.633-39.385 39.385-39.385s39.385 17.633 39.385 39.385v393.846c0 21.752-17.633 39.385-39.385 39.385s-39.385-17.633-39.385-39.385zM472.615 659.692v-551.385c-0-21.752 17.633-39.385 39.385-39.385s39.385 17.633 39.385 39.385l0 551.385c-0 21.752-17.633 39.385-39.385 39.385s-39.385-17.633-39.385-39.385zM630.154 580.923v-393.846c0-21.752 17.633-39.385 39.385-39.385s39.385 17.633 39.385 39.385v393.846c0 21.752-17.633 39.385-39.385 39.385s-39.385-17.633-39.385-39.385zM39.385 738.462h945.231c21.752 0 39.385 17.633 39.385 39.385s-17.633 39.385-39.385 39.385h-945.231c-21.752 0-39.385-17.633-39.385-39.385s17.633-39.385 39.385-39.385z"  horiz-adv-x="1024" />

    
    <glyph glyph-name="import" unicode="&#58974;" d="M597.333 273.664v579.669c0 23.040-19.115 42.667-42.667 42.667-22.869 0-42.667-19.115-42.667-42.667v-579.669l-140.459 140.544c-7.731 7.731-18.411 12.513-30.208 12.513-23.594 0-42.721-19.127-42.721-42.721 0-11.797 4.782-22.477 12.513-30.208l213.333-213.333c7.725-7.744 18.407-12.535 30.208-12.535s22.483 4.791 30.207 12.534l213.334 213.334c7.731 7.731 12.513 18.411 12.513 30.208 0 23.594-19.127 42.721-42.721 42.721-11.797 0-22.477-4.782-30.208-12.513l-140.459-140.544zM85.333-42.667v470.101c-0.431 23.231-19.366 41.899-42.66 41.899-0.002 0-0.005-0-0.007-0-23.552 0-42.666-19.883-42.666-42.923v-511.488c0-23.723 19.285-42.923 42.155-42.923h1025.024c23.356 0.478 42.112 19.504 42.155 42.919l0 511.491c-0.189 23.54-19.15 42.59-42.638 42.922-0.031 0-0.033 0-0.035 0-23.294 0-42.228-18.667-42.659-41.858l-0.001-470.142h-938.667z"  horiz-adv-x="1109" />

    
    <glyph glyph-name="link" unicode="&#58975;" d="M499.419 500.005l52.224 52.151c13.041 13.159 21.099 31.275 21.099 51.273s-8.058 38.114-21.104 51.279l-207.794 207.793c-13.159 13.041-31.275 21.099-51.273 21.099-19.998 0-38.114-8.058-51.279-21.104l-207.793-207.794c-13.041-13.159-21.099-31.275-21.099-51.273s8.058-38.114 21.104-51.279l207.794-207.793c13.159-13.041 31.275-21.099 51.273-21.099 19.998 0 38.114 8.058 51.279 21.104l52.145 52.219-51.712 51.712-51.712-51.712-206.848 206.848 206.848 206.848 206.848-206.848-51.712-51.712 51.712-51.712zM524.581 267.995l-52.224-52.151c-13.041-13.159-21.099-31.275-21.099-51.273s8.058-38.114 21.104-51.279l207.794-207.793c13.159-13.041 31.275-21.099 51.273-21.099s38.114 8.058 51.279 21.104l207.793 207.794c13.041 13.159 21.099 31.275 21.099 51.273s-8.058 38.114-21.104 51.279l-207.794 207.793c-13.159 13.041-31.275 21.099-51.273 21.099s-38.114-8.058-51.279-21.104l-52.145-52.219 51.712-51.712 51.712 51.712 206.848-206.848-206.848-206.848-206.848 206.848 51.712 51.712-51.712 51.712zM303.25 540.965l365.714-365.714 51.785 51.785-365.714 365.714-51.785-51.785z"  horiz-adv-x="1024" />

    
    <glyph glyph-name="issue-approved" unicode="&#58976;" d="M512-54.857c0 0 0 0 0 0 242.374 0 438.857 196.483 438.857 438.857 0 242.374-196.483 438.857-438.857 438.857-0 0-0 0-0 0-242.374 0-438.857-196.483-438.857-438.857 0-242.374 196.483-438.857 438.857-438.857zM512-128c-282.77 0-512 229.23-512 512s229.23 512 512 512c282.77 0 512-229.23 512-512 0-282.77-229.23-512-512-512zM245.321 409.893c-6.626 6.626-15.781 10.725-25.893 10.725-20.223 0-36.618-16.394-36.618-36.618 0-10.112 4.099-19.266 10.725-25.893l219.063-218.99c6.523-6.73 15.647-10.906 25.745-10.906 10.063 0 19.157 4.147 25.667 10.826l340.561 354.677c6.352 6.57 10.266 15.531 10.266 25.407 0 20.198-16.374 36.571-36.571 36.571-9.875 0-18.837-3.914-25.417-10.276l-313.992-329.133-193.536 193.609z"  horiz-adv-x="1024" />

    
    <glyph glyph-name="date" unicode="&#58977;" d="M512-49.231c239.267 0 433.231 193.964 433.231 433.231s-193.964 433.231-433.231 433.231c-239.267 0-433.231-193.964-433.231-433.231 0-239.267 193.964-433.231 433.231-433.231zM512-128c-282.77 0-512 229.23-512 512s229.23 512 512 512c282.77 0 512-229.23 512-512 0-282.77-229.23-512-512-512zM472.615 384c0 21.74 16.935 39.385 38.597 39.385h237.883c21.41-0.442 38.597-17.902 38.597-39.377 0-0.003-0-0.006-0-0.008 0-21.74-16.935-39.384-38.597-39.384h-237.883c-21.41 0.442-38.597 17.902-38.597 39.377 0 0.003 0 0.006 0 0.008zM472.615 699.234c0 21.662 18.274 39.227 39.385 39.227 21.74 0 39.385-16.935 39.385-39.227v-315.392c-0.265-21.613-17.761-39.053-39.37-39.227-0.155-0.002-0.322-0.003-0.488-0.003-21.491 0-38.912 17.421-38.912 38.912 0 0.112 0 0.223 0.001 0.335l-0 315.375z"  horiz-adv-x="1024" />

    
    <glyph glyph-name="waiting" unicode="&#58979;" d="M512-54.857c0 0 0 0 0 0 242.374 0 438.857 196.483 438.857 438.857 0 242.374-196.483 438.857-438.857 438.857-0 0-0 0-0 0-242.374 0-438.857-196.483-438.857-438.857 0-242.374 196.483-438.857 438.857-438.857zM512-128c-282.77 0-512 229.23-512 512s229.23 512 512 512c282.77 0 512-229.23 512-512 0-282.77-229.23-512-512-512zM219.429 310.857c0 0 0 0 0 0 40.396 0 73.143 32.747 73.143 73.143 0 40.396-32.747 73.143-73.143 73.143-0 0-0 0-0 0-40.396-0-73.143-32.747-73.143-73.143 0-40.396 32.747-73.143 73.143-73.143zM512 310.857c0 0 0 0 0 0 40.396 0 73.143 32.747 73.143 73.143 0 40.396-32.747 73.143-73.143 73.143-0 0-0 0-0 0-40.396-0-73.143-32.747-73.143-73.143 0-40.396 32.747-73.143 73.143-73.143zM804.571 310.857c0 0 0 0 0 0 40.396 0 73.143 32.747 73.143 73.143 0 40.396-32.747 73.143-73.143 73.143-0 0-0 0-0 0-40.396-0-73.143-32.747-73.143-73.143 0-40.396 32.747-73.143 73.143-73.143z"  horiz-adv-x="1024" />

    
    <glyph glyph-name="lock" unicode="&#58980;" d="M136.533 418.133v-477.867h750.933v477.867h-750.933zM68.267 418.27c0 37.615 30.515 68.13 68.198 68.13h751.002c37.683 0 68.198-30.447 68.198-68.13v-478.14c0-37.615-30.515-68.13-68.198-68.13h-750.933c-0.041-0-0.089-0-0.137-0-37.627 0-68.13 30.503-68.13 68.13 0 0 0 0 0 0l-0 478.14zM477.867 247.808c0 18.637 15.838 33.792 34.133 33.792 18.842 0 34.133-14.746 34.133-33.792v-137.216c-0.306-18.659-15.448-33.681-34.125-33.792-0.13-0.002-0.274-0.003-0.418-0.003-18.625 0-33.724 15.099-33.724 33.724 0 0.025 0 0.050 0 0.075l-0 137.212zM341.333 452.267l-68.267-12.834v183.501c0 150.869 88.064 273.067 238.933 273.067s238.933-122.197 238.933-273.067v-136.533h-68.267v136.533c0 113.118-57.549 204.8-170.667 204.8s-170.667-91.682-170.667-204.8v-170.667z"  horiz-adv-x="1024" />

    
    <glyph glyph-name="close" unicode="&#58981;" d="M512 456.397l402.637 402.739c9.198 8.892 21.744 14.372 35.569 14.372 28.277 0 51.2-22.923 51.2-51.2 0-13.826-5.48-26.371-14.386-35.584l-402.623-402.725 402.739-402.637c8.892-9.198 14.372-21.744 14.372-35.569 0-28.277-22.923-51.2-51.2-51.2-13.826 0-26.371 5.48-35.584 14.386l-402.725 402.623-402.637-402.739c-9.198-8.892-21.744-14.372-35.569-14.372-28.277 0-51.2 22.923-51.2 51.2 0 13.826 5.48 26.371 14.386 35.584l402.623 402.725-402.739 402.637c-9.277 9.277-15.015 22.093-15.015 36.25 0 28.313 22.952 51.265 51.265 51.265 14.156 0 26.973-5.738 36.25-15.015l402.637-402.739z"  horiz-adv-x="1024" />

    
    <glyph glyph-name="remind" unicode="&#58970;" d="M511.985-81.456c34.273 0.001 64.22 18.524 80.376 46.105l-160.99 0.439c16.394-28.020 46.341-46.543 80.615-46.544zM651.617 11.631c0-0.004 0-0.008 0-0.012 0-77.116-62.515-139.631-139.631-139.631-77.116 0-139.631 62.515-139.631 139.631 0 0.004 0 0.008 0 0.012l279.263-0.001zM791.248 151.263v326.039c0 0.014 0 0.030 0 0.047 0 154.078-124.905 278.984-278.984 278.984-0.098 0-0.196-0-0.295-0-153.998 0-279.248-125.063-279.248-279.030v-326.039h558.526zM575.285 796.733c150.674-30.518 262.507-161.884 262.507-319.369 0-0.022-0-0.043-0-0.065l0-326.036h69.816c12.846 0 23.272-10.798 23.272-23.272 0-12.846-10.612-23.272-23.272-23.272h-791.245c-12.801 0.13-23.143 10.473-23.272 23.261-0 12.857 10.612 23.283 23.272 23.283h69.816v326.039c0 158.109 113.101 289.921 262.507 319.43-4.099 8.62-6.493 18.731-6.493 29.402 0 38.558 31.258 69.816 69.816 69.816 38.558 0 69.816-31.258 69.816-69.816 0-10.67-2.394-20.782-6.674-29.826zM511.985 802.877c12.853 0 23.272 10.419 23.272 23.272 0 12.853-10.419 23.272-23.272 23.272-12.853 0-23.272-10.419-23.272-23.272 0-12.853 10.419-23.272 23.272-23.272z"  horiz-adv-x="1024" />

    
    <glyph glyph-name="submodule" unicode="&#58978;" d="M192-0.256c0 0.256 767.552 0.256 767.552 0.256 0.448 0 0.448 448 0.448 448h-339.392l-192 128h-236.608v-576.256zM128 576.256c0 35.2 28.416 63.744 64 63.744h256l192-128h320.64c34.944 0 63.36-28.544 63.36-63.872v-448.256c0-35.264-28.8-63.872-64.448-63.872h-767.104c-0.133-0.001-0.291-0.002-0.449-0.002-35.257 0-63.855 28.509-63.999 63.732l-0 576.526zM64 128h64v-64h-64c-35.328 0-64 28.48-64 63.744v640.896c0 35.648 29.44 63.36 64 63.36h320l192-130.112h384c35.2 0 64-25.408 64-61.312v-64.576h-64v61.888h-403.648l-192 130.112h-300.352v-640z"  horiz-adv-x="1024" />

    
    <glyph glyph-name="branches" unicode="&#58886;" d="M295.55 514.95V258c84.6-17.099999999999998 139.5-99.9 122.4-184.95-17.099999999999998-84.6-99.9-139.5-184.95-122.4-84.6 17.099999999999998-139.5 99.9-122.4 184.95 12.6 61.650000000000006 60.750000000000014 109.80000000000001 122.4 122.4v256.95c-84.6 17.549999999999997-139.5 99.9-121.95000000000002 184.95s99.9 139.5 184.95 121.95000000000002c84.6-17.549999999999997 139.5-99.9 121.95000000000002-184.95-0.44999999999999996-3.15-1.3499999999999999-6.749999999999999-2.25-9.899999999999999l259.65-144.45000000000002c70.65 49.95 168.3 33.3 218.24999999999997-37.35s33.3-168.3-37.35-218.24999999999997-168.3-33.3-218.24999999999997 37.35c-36 50.85-38.25000000000001 117.9-6.3 171l-244.35000000000005 135.9c-22.949999999999996-29.250000000000004-55.35-49.05-91.79999999999998-56.25zM765.8 260.70000000000005c51.75 0 94.05 42.3 94.05 94.05 0 51.75-42.3 94.05-94.05 94.05s-94.05-42.3-94.05-94.05c0-51.75 42.3-94.05 94.05-94.05zM264.5 10.049999999999955c51.75 0 94.05 42.3 94.05 94.05 0 51.75-42.3 94.05-94.05 94.05s-94.05-42.3-94.05-94.05c0-51.75 41.85-94.05 94.05-94.05z m0 564.3c51.75 0 94.05 42.3 94.05 94.05s-42.3 94.05-94.05 94.05c-51.75 0-94.05-42.3-94.05-94.05s41.85-94.05 94.05-94.05z"  horiz-adv-x="1024" />

    
    <glyph glyph-name="reset" unicode="&#58887;" d="M174.592 730.624c-188.416-188.928-187.904-495.104 1.024-684.032s495.104-187.904 684.032 1.024 187.904 495.104-1.024 684.032c-90.624 90.112-213.504 140.8-341.504 140.8-15.872 0-28.672-12.8-28.672-28.672s12.8-28.672 28.672-28.672c235.52 0 426.496-190.976 426.496-426.496s-190.976-426.496-426.496-426.496-426.496 190.976-426.496 426.496c0 121.344 51.712 237.056 142.336 317.952v-147.456c0-15.872 12.8-28.672 28.672-28.672s28.672 12.8 28.672 28.672v199.168c0 15.872-12.8 28.672-28.672 28.672h-199.168c-15.872 0-28.672-12.8-28.672-28.672 0-15.872 12.8-28.672 28.672-28.672h112.128z"  horiz-adv-x="1024" />

    
    <glyph glyph-name="share" unicode="&#58888;" d="M93.696-37.376h819.2v409.6h68.096v-443.392c0-18.944-14.848-34.304-33.792-34.304h-887.808c-18.944 0-33.792 14.848-33.792 33.792v887.808c0 18.944 15.872 33.792 34.304 33.792h443.392v-68.096h-409.6v-819.2zM316.928 139.776c2.048 4.608 26.112 83.968 40.96 121.856 37.888 97.28 95.744 185.856 169.984 260.096 38.912 38.4 83.456 70.144 132.096 94.208 60.416 29.696 125.44 50.176 192 60.928 23.040 4.096 44.032 6.144 62.976 7.68 11.264 1.024 18.944 1.024 23.040 1.024 18.946 0 34.304 15.358 34.304 34.304 0 18.946-15.358 34.304-34.304 34.304-5.632 0-14.848-0.512-27.648-1.024-23.552-1.536-46.592-4.608-69.632-8.192-73.216-11.776-144.384-34.304-211.456-67.072-55.296-27.136-105.984-63.488-150.016-107.008-80.384-80.384-143.872-177.152-184.832-283.136-16.896-43.008-39.424-118.272-38.4-116.736-7.68-16.896-0.512-37.376 16.896-45.056 15.872-8.192 35.328-1.536 44.032 13.824zM772.608 817.152l158.72-91.648c-30.72-52.736-61.44-105.472-91.648-158.208-9.728-16.384-4.096-37.376 12.288-46.592 16.384-9.728 37.376-4.096 46.592 12.288v0.512l91.648 158.72c18.432 32.768 7.68 74.24-25.088 93.184l-158.72 91.648c-16.384 9.216-37.376 3.584-46.592-12.8-9.216-16.896-3.584-37.888 12.8-47.104z"  horiz-adv-x="1024" />

    
    <glyph glyph-name="attention" unicode="&#58889;" d="M524.288 778.752c-55.296 56.832-124.416 91.136-206.848 91.136-188.416 0-311.296-156.16-311.296-349.184 0-47.104 14.336-96.256 40.448-146.944 44.544-86.016 123.392-176.128 226.816-267.264 74.752-65.536 153.6-125.952 236.032-180.736 10.752-7.168 18.432-12.288 22.528-14.848l20.992-13.312 20.992 13.312c4.096 2.56 11.776 7.68 22.528 14.336 17.408 11.776 36.864 25.088 58.368 39.936 61.44 43.52 120.32 90.112 176.64 139.776 107.008 94.72 187.904 188.416 230.912 278.528 22.528 47.104 34.816 92.672 34.816 136.704 0 192.512-123.904 349.184-308.224 349.184-87.040 0-157.184-34.816-210.944-91.648-25.6-26.624-46.592-57.344-60.928-91.648l72.192 1.536c-16.896 34.304-38.912 65.024-65.024 91.136zM555.008 572.416l34.304 85.504c11.264 24.576 26.624 47.104 45.568 66.56 39.936 41.984 90.112 67.072 153.6 67.072 136.192 0 229.376-117.248 229.376-270.336 0-31.232-9.216-65.536-26.624-102.4-37.888-78.336-112.128-164.864-211.968-253.44-77.824-68.096-160.256-130.56-246.784-186.368h41.984c-26.112 16.896-51.712 34.304-77.312 52.736-59.392 41.984-116.224 87.040-171.008 135.168-96.768 85.504-169.472 168.448-208.896 244.224-20.992 40.448-31.744 77.312-31.744 110.592 0 152.576 92.672 270.336 232.448 270.336 59.904 0 109.568-25.088 150.528-67.072 19.456-20.48 35.84-43.008 49.152-68.096l37.376-84.48z"  horiz-adv-x="1101" />

    
    <glyph glyph-name="issuepx" unicode="&#58968;" d="M544-64c229.75 0 416 186.25 416 416s-186.25 416-416 416c-229.75 0-416-186.25-416-416 0-229.75 186.25-416 416-416zM544-128c-265.097 0-480 214.903-480 480s214.903 480 480 480c265.097 0 480-214.903 480-480 0-265.097-214.903-480-480-480zM544 64c17.673 0 32 14.327 32 32s-14.327 32-32 32c-17.673 0-32-14.327-32-32 0-17.673 14.327-32 32-32zM512 607.808c0 17.792 14.848 32.192 32 32.192 17.664 0 32-14.912 32-32.192v-383.616c-0.142-17.655-14.363-31.943-31.979-32.192-17.661 0.251-31.881 14.538-32.021 32.18l-0 383.627z"  horiz-adv-x="1024" />

    
    <glyph glyph-name="setting-16px" unicode="&#58982;" d="M925.809775 207.668461A267.126818 267.126818 0 0 0 859.508054 383.982401c0 65.789738 23.871179 127.867605 66.301721 176.313939a446.128664 446.128664 0 0 1-53.758152 91.964839A269.558734 269.558734 0 0 0 565.566159 828.767111a451.632475 451.632475 0 0 1-107.132318 0 269.558734 269.558734 0 0 0-306.485464-176.505932c-21.567259-28.479021-39.678636-59.325961-53.758152-91.964839A267.06282 267.06282 0 0 0 164.491946 383.982401a267.126818 267.126818 0 0 0-66.301721-176.31394c14.079516-32.638878 32.190893-63.485818 53.758152-91.964838a269.430738 269.430738 0 0 0 306.485464-176.505933 454.000394 454.000394 0 0 1 107.132318 0 269.430738 269.430738 0 0 0 306.485464 176.505933c21.567259 28.543019 39.678636 59.389958 53.758152 91.964838z m-208.056848-178.361868a203.960989 203.960989 0 0 1-93.436788-116.284003 51.518229 51.518229 0 0 0-41.918559-36.222755 519.022159 519.022159 0 0 0-140.79516 0 51.518229 51.518229 0 0 0-41.918559 36.222755 205.560934 205.560934 0 0 1-240.88772 138.74723 51.838218 51.838218 0 0 0-52.286202 18.04738 510.190462 510.190462 0 0 0-70.781567 121.275831 51.19824 51.19824 0 0 0 10.431641 54.39813c33.726841 36.478746 54.334132 85.053076 54.334133 138.49124 0 53.502161-20.607292 102.076491-54.398131 138.491239a51.326236 51.326236 0 0 0-10.367643 54.39813C53.775751 620.774261 77.710929 661.476862 106.509939 698.211599a51.77422 51.77422 0 0 0 52.286202 18.04738A205.688929 205.688929 0 0 1 399.683861 855.006209 51.518229 51.518229 0 0 0 441.60242 891.164966a514.926299 514.926299 0 0 0 140.79516 0 51.518229 51.518229 0 0 0 41.918559-36.158757 205.688929 205.688929 0 0 1 240.88772-138.74723 51.77422 51.77422 0 0 0 52.286202-18.111378c28.79901-36.734737 52.798185-77.437338 70.781567-121.211833 7.615738-18.62336 3.263888-39.678636-10.431641-54.39813A203.193015 203.193015 0 0 1 923.505854 383.982401c0-53.438163 20.607292-102.076491 54.398131-138.49124a51.19824 51.19824 0 0 0 10.367643-54.39813 510.190462 510.190462 0 0 0-70.781567-121.275831 51.838218 51.838218 0 0 0-52.286202-18.04738 205.560934 205.560934 0 0 1-147.450932-22.463227zM735.9923 383.982401a223.9923 223.9923 0 1 0-447.9846 0 223.9923 223.9923 0 0 0 447.9846 0z m-63.9978 0a159.9945 159.9945 0 1 1-319.989 0 159.9945 159.9945 0 0 1 319.989 0z"  horiz-adv-x="1024" />

    
    <glyph glyph-name="member" unicode="&#58983;" d="M608 384c106.039 0 192 85.961 192 192s-85.961 192-192 192c-106.039 0-192-85.961-192-192 0-106.039 85.961-192 192-192zM192-32c-0 0.005-0 0.011-0 0.017 0 180.239 114.572 333.718 274.86 391.581-68.375 47.156-114.86 126.34-114.86 216.381 0 141.385 114.615 256 256 256 141.385 0 256-114.615 256-256 0-90.041-46.485-169.224-116.766-214.861 160.798-57.565 276.766-211.805 276.766-393.117 0-17.673-14.327-32-32-32-17.673 0-32 14.327-32 32 0 194.404-157.596 352-352 352-194.404 0-352-157.596-352-352 0-17.673-14.327-32-32-32-17.673 0-32 14.327-32 32zM332.672 387.52c13.439-0.036 24.32-10.94 24.32-24.384 0-13.467-10.917-24.384-24.384-24.384-0.023 0-0.045 0-0.067 0-156.157-0-283.261-135.552-283.261-302.272 0.020-0.373 0.032-0.808 0.032-1.247 0-13.432-10.888-24.32-24.32-24.32-13.432 0-24.32 10.888-24.32 24.32 0 0.439 0.012 0.875 0.035 1.308-0.003 154.372 94.845 285.956 226.301 332.484-61.76 38.4-103.296 109.056-103.296 189.952 0 121.344 93.696 220.288 208.96 220.288 12.953-0.684 23.198-11.354 23.198-24.416 0-13.062-10.244-23.732-23.137-24.413-88.445-0.003-160.317-76.803-160.317-171.523 0-94.4 71.872-171.456 160.256-171.456z"  horiz-adv-x="1024" />

    
    <glyph glyph-name="project-import" unicode="&#58883;" d="M1004.476 896h156.058v-1024h-1024v243.78h78.029v-165.751h867.942v867.942h-321.809v-156.058h-546.133v-155.989h-78.029v234.018h546.133v156.058h321.809zM416.905 139.605l137.216 136.738h-554.121v75.571h557.397l-140.493 139.947c-6.69 6.654-10.831 15.865-10.831 26.044s4.141 19.39 10.829 26.042c6.692 6.667 15.922 10.788 26.114 10.788 10.192 0 19.421-4.121 26.113-10.787l202.751-202.068c6.69-6.654 10.831-15.865 10.831-26.044s-4.141-19.39-10.829-26.042l-202.754-202.139c-6.691-6.665-15.92-10.786-26.112-10.786s-19.421 4.121-26.113 10.787c-6.669 6.649-10.795 15.847-10.795 26.008 0 10.162 4.127 19.359 10.796 26.009z"  horiz-adv-x="1160" />

    
    <glyph glyph-name="issue-started" unicode="&#58984;" d="M512 108.308c0 0 0 0 0 0 21.752 0 39.385 17.633 39.385 39.385 0 21.752-17.633 39.385-39.385 39.385-0 0-0 0-0 0-21.752-0-39.385-17.633-39.385-39.385 0-21.752 17.633-39.385 39.385-39.385zM472.615 620.465c0 21.662 18.274 39.227 39.385 39.227 21.74 0 39.385-16.935 39.385-39.227v-315.392c-0.265-21.613-17.761-39.053-39.37-39.227-0.155-0.002-0.322-0.003-0.488-0.003-21.49 0-38.912 17.421-38.912 38.912 0 0.112 0 0.223 0.001 0.335l-0 315.375zM157.223 632.753l-60.258 51.2c93.867 129.087 244.391 212.047 414.292 212.047 0.261 0 0.522-0 0.784-0.001-0.041 0-0.041 0-0.041 0 282.77 0 512-229.23 512-512 0-0.028-0-0.055-0-0.083 0-21.747-17.633-39.38-39.385-39.38-21.752 0-39.385 17.633-39.385 39.385 0 0 0 0 0 0 0 0.057 0 0.124 0 0.191 0 239.267-193.964 433.23-433.23 433.23-146.154 0-275.404-72.373-353.868-183.237zM866.776 135.247l60.258-51.2c-93.867-129.087-244.391-212.047-414.292-212.047-0.261 0-0.522 0-0.784 0.001 0.041-0 0.041-0 0.041-0-282.77 0-512 229.23-512 512 0 0.028 0 0.055 0 0.083-0 21.747 17.633 39.38 39.385 39.38 21.752 0 39.385-17.633 39.385-39.385-0-0.033-0-0.073-0-0.112 0-239.267 193.964-433.23 433.23-433.23 146.154 0 275.404 72.373 353.868 183.237zM45.292 622.276v162.422c-0 21.752 17.633 39.385 39.385 39.385s39.385-17.633 39.385-39.385v-162.422l-43.008 39.227 168.802 15.675c1.086 0.106 2.348 0.167 3.623 0.167 21.757 0 39.394-17.637 39.394-39.394 0-20.481-15.63-37.311-35.612-39.215l-168.961-15.687c-1.086-0.106-2.348-0.167-3.623-0.167-21.752 0-39.385 17.633-39.385 39.385 0 0.003 0 0.007 0 0.010zM978.707 145.723v-162.422c0-21.752-17.633-39.385-39.385-39.385s-39.385 17.633-39.385 39.385c0 0 0 0 0 0v162.422l43.008-39.227-168.802-15.675c-1.086-0.106-2.348-0.167-3.623-0.167-21.757 0-39.394 17.637-39.394 39.394 0 20.481 15.63 37.311 35.612 39.215l168.961 15.687c1.086 0.106 2.348 0.167 3.623 0.167 21.752 0 39.385-17.633 39.385-39.385 0-0.003-0-0.007-0-0.010z"  horiz-adv-x="1024" />

    
    <glyph glyph-name="recommend" unicode="&#58890;" d="M852.108 251.811c44.034 63.949 70.33 143.080 70.33 228.352 0 0.082-0 0.164-0 0.246 0 229.503-191.162 415.592-426.961 415.592-235.753 0-426.915-186.089-426.915-415.604 0-95.325 33.001-183.203 88.436-253.3l-110.452-183.668s91.974-17.92 185.297-36.678c62.185-67.398 124.137-134.749 124.137-134.749l116.364 193.396c6.832-0.374 14.829-0.587 22.875-0.587 19.32 0 38.352 1.228 57.024 3.61l115.778-196.42s61.905 67.351 124.137 134.749c93.324 18.711 185.297 36.678 185.297 36.678l-125.347 208.384zM351.139-37.469l-89.46 89.6-142.988 22.807 76.94 116.364c68.065-69.139 159.010-115.578 260.551-127.030l-105.089-101.74zM670.813-34.909l-65.722 107.753c100.88 27.739 185.134 87.273 243.504 166.957l35.768-158.021-119.156-24.529-94.394-92.16zM494.080 846.196c206.569 0 373.993-163.002 373.993-364.079s-167.424-364.032-373.993-364.032c-206.569 0-373.993 163.002-373.993 364.079s167.424 364.032 373.993 364.032zM624.593 232.913c15.127-8.332 32.815 5.12 29.929 22.807l-25.972 158.394 109.94 112.175c12.241 12.474 5.492 34.257-11.45 36.817l-151.878 23.133-67.956 144.105c-3.215 7.15-10.276 12.039-18.479 12.039s-15.263-4.889-18.427-11.912l-68.008-144.232-151.878-23.133c-16.943-2.56-23.692-24.343-11.45-36.817l109.94-112.175-25.972-158.441c-2.886-17.641 14.801-31.092 29.929-22.761l135.866 74.799 135.866-74.799zM391.401 417.978c0.188 1.088 0.296 2.34 0.296 3.618 0 6.012-2.385 11.467-6.26 15.471l-87.732 89.64 121.204 18.432c7.254 1.196 13.158 6.021 15.853 12.513l53.965 114.37 54.225-115.060c3.025-6.377 8.844-10.799 15.546-11.823l121.251-18.479-87.738-89.553c-3.846-3.993-6.214-9.432-6.214-15.424 0-1.293 0.11-2.559 0.322-3.792l20.694-126.379-108.451 59.718c-2.77 1.568-6.083 2.492-9.612 2.492s-6.842-0.924-9.71-2.543l-108.352-59.667 20.666 126.464z"  horiz-adv-x="1024" />

    
    <glyph glyph-name="recommended" unicode="&#58891;" d="M852.108 251.811c44.034 63.949 70.33 143.080 70.33 228.352 0 0.082-0 0.164-0 0.246 0 229.503-191.162 415.592-426.961 415.592-235.753 0-426.915-186.089-426.915-415.604 0-95.325 33.001-183.203 88.436-253.3l-110.452-183.668s91.974-17.92 185.297-36.678c62.185-67.398 124.137-134.749 124.137-134.749l116.364 193.396c6.832-0.374 14.829-0.587 22.875-0.587 19.32 0 38.352 1.228 57.024 3.61l115.778-196.42s61.905 67.351 124.137 134.749c93.324 18.711 185.297 36.678 185.297 36.678l-125.347 208.384zM494.080 846.196c206.569 0 373.993-163.002 373.993-364.079s-167.424-364.032-373.993-364.032c-206.569 0-373.993 163.002-373.993 364.079s167.424 364.032 373.993 364.032zM624.593 232.913c15.127-8.332 32.815 5.12 29.929 22.807l-25.972 158.394 109.94 112.175c12.241 12.474 5.492 34.257-11.45 36.817l-151.878 23.133-67.956 144.105c-3.215 7.15-10.276 12.039-18.479 12.039s-15.263-4.889-18.427-11.912l-68.008-144.232-151.878-23.133c-16.943-2.56-23.692-24.343-11.45-36.817l109.94-112.175-25.972-158.441c-2.886-17.641 14.801-31.092 29.929-22.761l135.866 74.799 135.866-74.799z"  horiz-adv-x="1024" />

    
    <glyph glyph-name="issue-closed" unicode="&#58892;" d="M943.31782 423.1791l70.167391 63.47345A511.881561 511.881561 0 1 0 882.522347 737.158377l-59.850481-51.344554a433.130244 433.130244 0 1 1 120.645954-262.634723zM511.919561 108.489829a39.375659 39.375659 0 1 1 0 78.751317 39.375659 39.375659 0 0 1 0-78.751317z m-39.375659 512.03956c0 21.655812 18.269842 39.21766 39.375659 39.21766 21.735812 0 39.375659-16.931853 39.375658-39.21766v-315.320266a39.689656 39.689656 0 0 0-39.375658-39.21666 38.903663 38.903663 0 0 0-39.375659 39.21666V620.529389z m271.218648 7.480935l75.522345-71.663379 180.418436 155.375653a39.375659 39.375659 0 0 0 51.424554-59.693482L843.698684 473.421665a39.375659 39.375659 0 0 0-52.763543 1.259989L689.504021 570.83682a39.375659 39.375659 0 1 0 54.17953 57.173504z"  horiz-adv-x="1100" />

    
    <glyph glyph-name="snippet2" unicode="&#58893;" d="M1036.203 896h-877.739c-87.125 0-158.464-70.4-158.464-156.416v-711.168c0-86.016 71.339-156.416 158.464-156.416h877.739c87.125 0 158.464 70.4 158.464 156.416v711.168c0 86.016-71.339 156.416-158.464 156.416zM1109.333 42.24c0-46.933-38.912-84.907-85.504-84.907h-852.992c-46.956 0.142-85.023 38-85.504 84.863l-0 683.564c0 46.933 38.912 84.907 85.504 84.907h852.992c47.104 0 85.504-38.912 85.504-84.907v-683.52zM487.253 160.171l76.459-20.309 161.28 479.915-76.544 20.224-161.195-479.829zM448.256 236.971l-165.547 161.28 165.547 161.195-56.064 55.296-221.525-216.491 221.525-216.576 56.064 55.296zM785.067 236.971l56.149-55.296 221.44 216.576-221.525 216.491-56.064-55.211 165.547-161.28-165.547-161.28z"  horiz-adv-x="1194" />

    
    <glyph glyph-name="snippet" unicode="&#58894;" d="M1145.913 896h-1040.27c-58.084 0-105.643-46.933-105.643-104.277v-815.445c0-57.344 47.559-104.277 105.643-104.277h1040.27c58.084 0 105.643 46.933 105.643 104.277v815.445c0 57.344-47.559 104.277-105.643 104.277zM1198.706-23.723c0-31.289-21.106-52.11-52.793-52.11h-1040.27c-31.687 0-52.793 20.821-52.793 52.11v606.834h1145.799v-606.834zM1198.706 635.278h-1145.799v156.444c0 31.289 21.106 52.11 52.793 52.11h1040.27c31.687 0 52.793-20.821 52.793-52.11v-156.444zM518.144 64.114l164.352 433.664 50.972-13.483-164.352-433.721-50.972 13.54zM449.195 115.314l-37.376-36.864-204.572 201.273 204.516 201.216 37.433-36.864-167.253-164.409 167.253-164.352zM802.361 115.314l167.253 164.409-167.253 164.409 37.376 36.807 204.572-201.216-204.516-201.273-37.433 36.864zM105.643 739.556c0-28.786 23.666-52.167 52.85-52.167 29.184 0 52.793 23.324 52.793 52.167-0.193 28.853-23.627 52.168-52.507 52.168-0.1 0-0.201-0-0.301-0.001-0.086 0.001-0.207 0.001-0.327 0.001-28.88 0-52.314-23.315-52.507-52.15zM316.928 739.556c0-28.786 23.666-52.167 52.85-52.167 29.184 0 52.85 23.324 52.85 52.167-0.193 28.853-23.627 52.168-52.507 52.168-0.12 0-0.241-0-0.361-0.001-0.083 0.001-0.204 0.001-0.324 0.001-28.88 0-52.314-23.315-52.507-52.15zM528.27 739.556c0-28.786 23.609-52.167 52.793-52.167 29.184 0 52.85 23.324 52.85 52.167-0.193 28.853-23.627 52.168-52.507 52.168-0.12 0-0.241-0-0.361-0.001-0.066 0.001-0.167 0.001-0.267 0.001-28.88 0-52.314-23.315-52.507-52.15z"  horiz-adv-x="1251" />

    
    <glyph glyph-name="blog" unicode="&#58986;" d="M877.714 29.55v708.901c0 47.835-34.011 84.407-73.143 84.407h-585.143c-39.131 0-73.143-36.571-73.143-84.407v-708.901c0-47.835 34.011-84.407 73.143-84.407h585.143c39.131 0 73.143 36.571 73.143 84.407zM950.857 29.55c0-87.040-65.463-157.55-146.286-157.55h-585.143c-80.823 0-146.286 70.51-146.286 157.55v708.901c0 87.040 65.463 157.55 146.286 157.55h585.143c80.823 0 146.286-70.51 146.286-157.55v-708.901zM804.571 640v-146.286c0-60.594-49.121-109.714-109.714-109.714h-146.286c-60.594 0-109.714 49.121-109.714 109.714l-0 146.286c0 60.594 49.121 109.714 109.714 109.714h146.286c0 0 0 0 0 0 60.594 0 109.714-49.121 109.714-109.714zM731.429 640c0 20.198-16.374 36.571-36.571 36.571h-146.286c0 0 0 0 0 0-20.198 0-36.571-16.374-36.571-36.571v-146.286c0-20.198 16.374-36.571 36.571-36.571 0 0 0 0 0 0l146.286 0c20.198 0 36.571 16.374 36.571 36.571 0 0 0 0 0 0v146.286zM219.429 676.571h146.286v73.143h-146.286v-73.143zM219.429 530.286h146.286v73.143h-146.286v-73.143zM219.429 384h146.286v73.143h-146.286v-73.143zM219.429 237.714h585.143v73.143h-585.143v-73.143zM219.429 91.429h405.065v73.143h-405.065v-73.143z"  horiz-adv-x="1024" />

    
    <glyph glyph-name="introduction" unicode="&#58987;" d="M277.943 359.717c-36.017 33.492-58.478 81.142-58.478 134.039 0 100.989 81.868 182.857 182.857 182.857 100.989 0 182.857-81.868 182.857-182.857 0-52.897-22.461-100.547-58.365-133.936 121.011-50.532 204.614-167.94 204.614-304.875 0-0.031-0-0.062-0-0.093l-73.143 0.005c0 141.385-114.615 256-256 256s-256-114.615-256-256h-73.143c-0 0.017-0 0.038-0 0.058 0 136.962 83.637 254.39 202.623 303.997zM402.286 384c0.003-0 0.007-0 0.010-0 60.594 0 109.714 49.121 109.714 109.714 0 60.594-49.121 109.714-109.714 109.714-0.004 0-0.007-0-0.011-0-60.588-0.006-109.703-49.124-109.703-109.714 0-60.59 49.115-109.708 109.703-109.714zM950.857 164.571v512c0 39.351-29.842 73.143-73.143 73.143h-731.429c-50.761 0-73.143-20.187-73.143-50.615v-534.528c0-39.351 29.842-73.143 73.143-73.143h731.429c43.301 0 73.143 33.792 73.143 73.143zM1024 164.571c0-68.389-52.005-146.286-146.286-146.286h-731.429c-94.281 0-146.286 77.897-146.286 146.286v534.528c0 68.315 52.005 123.758 146.286 123.758h731.429c94.281 0 146.286-77.897 146.286-146.286v-512zM731.429 603.429h219.429v-73.143h-219.429v73.143zM731.429 457.143h219.429v-73.143h-219.429v73.143zM731.429 310.857h219.429v-73.143h-219.429v73.143z"  horiz-adv-x="1024" />

    
    <glyph glyph-name="weibo" unicode="&#58988;" d="M1064.566 492.623c-18.905 0-31.508 12.603-31.508 31.508 0 154.23-119.65 280.103-267.579 280.103-18.905 0-31.508 12.603-31.508 31.508 0 18.905 12.603 31.508 31.508 31.508 182.587 0 330.594-154.309 330.594-343.198 0-15.754-12.603-31.508-31.508-31.508zM929.162 492.623c-18.905 0-31.508 12.603-31.508 31.508 0 81.762-66.087 147.929-144.778 147.929-18.905 0-31.508 12.603-31.508 31.508 0 18.905 12.603 31.508 31.508 31.508 116.5 0 207.793-94.523 207.793-211.023 0-18.905-15.754-31.508-31.508-31.508zM403.377 26.624c-110.119 0-198.341 72.468-198.341 160.61 0 88.143 88.222 160.532 198.341 160.532 110.277 0 198.42-72.468 198.42-160.532 0-88.222-91.372-160.61-198.42-160.61zM403.377 278.449c-70.341 0-126.031-39.778-126.031-88.064 0-48.364 55.69-88.222 126.031-88.222 70.42 0 126.031 39.857 126.031 88.222 0 48.286-58.604 88.064-126.031 88.064zM425.433-127.606c-47.262 0-97.595 6.302-141.627 18.905-47.262 12.603-88.222 31.508-126.031 56.635-75.461 53.563-119.572 122.801-135.326 201.492-12.603 78.769 0 154.23 37.809 226.698 34.658 69.238 78.769 132.175 132.254 188.889 53.484 56.714 110.119 100.746 173.135 129.103 69.317 31.508 122.801 34.658 163.682 12.603 0 0 3.151 0 3.151-3.151 25.206-18.905 40.96-47.262 44.111-81.92 3.151-22.055 3.151-37.809 0-53.563 3.151 3.151 9.452 3.151 12.603 6.302 12.603 6.302 28.357 12.603 50.412 22.055 21.977 9.452 44.032 12.603 62.937 15.754h12.603c40.881 0 72.389-12.603 94.366-37.809 22.055-28.278 31.508-56.635 28.357-91.215-3.151-25.206-6.302-50.412-12.603-72.468 63.015-15.754 107.126-53.563 125.952-110.198 18.905-59.786 9.452-119.572-28.357-185.738-22.055-37.809-50.412-72.389-88.143-103.897-37.809-31.508-78.69-56.714-122.801-78.69-44.111-18.905-91.294-34.658-138.476-44.111-53.563-9.452-100.825-15.754-148.007-15.754zM466.708 650.791c-21.74 0-46.553-6.144-74.516-18.432-52.775-24.576-102.4-61.44-148.874-110.671-46.631-52.224-90.033-110.592-121.068-172.032-21.832-40.023-34.67-87.662-34.67-138.3 0-16.248 1.322-32.187 3.863-47.716 9.066-59.745 46.245-112.048 105.322-155.056 30.956-21.504 65.142-36.864 105.472-46.080 80.66-21.504 167.542-21.504 254.425-3.151 43.481 9.295 86.961 21.583 124.14 40.015 37.258 18.432 74.516 39.936 105.551 67.584 31.035 27.648 55.847 55.296 74.437 86.016 27.963 46.080 37.258 89.167 21.74 129.103-12.367 36.864-40.33 58.289-86.882 67.584-3.151 0-9.295 0-12.446 3.072-12.367 3.072-18.59 12.288-24.812 21.504-6.144 6.144-15.518 27.648 0 55.296 3.151 15.36 6.302 36.864 9.374 58.368 3.072 15.36-3.151 30.72-15.518 43.008-9.374 12.367-27.963 18.511-52.775 15.439-12.446 0-27.963-6.144-46.553-12.367-18.668-6.144-34.186-12.288-43.481-18.432-12.367-6.144-24.812-12.288-37.258-15.36-24.812-9.216-40.33-12.288-55.847-3.072-9.295 9.216-27.884 27.648-12.367 67.663 3.151 9.216 6.144 21.504 3.151 49.152-3.151 21.504-9.452 27.569-15.596 33.792-3.151 0-12.367 3.072-24.812 3.072z"  horiz-adv-x="1102" />

    
    <glyph glyph-name="location" unicode="&#58895;" d="M658.286 457.143a146.286 146.286 0 1 1-292.572 0 146.286 146.286 0 0 1 292.572 0z m73.143 0a219.429 219.429 0 1 0-438.858 0 219.429 219.429 0 0 0 438.858 0zM532.48-15.58a2133.065 2133.065 0 0 1 145.847 139.483c64.585 68.389 116.809 134.437 151.918 194.926 31.451 54.272 47.47 101.376 47.47 138.313a365.714 365.714 0 1 1-731.43 0c0-36.937 16.019-84.041 47.47-138.24 35.109-60.562 87.333-126.61 151.918-194.999A2133.065 2133.065 0 0 1 512-33.206c6.583 5.631 13.458 11.483 20.48 17.627zM512-128S73.143 214.747 73.143 457.143a438.857 438.857 0 1 0 877.714 0C950.857 214.747 512-128 512-128z"  horiz-adv-x="1024" />

    
    <glyph glyph-name="time" unicode="&#58985;" d="M279.273 849.455v-186.182c0-38.726 93.091-38.912 93.091 0v186.182c0 38.726-93.091 38.912-93.091 0zM744.727 849.455v-186.182c0-51.386 93.091-51.386 93.091 0v186.182c0 51.386-93.091 51.386-93.091 0zM279.273 337.455h186.182v93.091h-186.182v-93.091zM651.636 337.455h186.182v93.091h-186.182v-93.091zM279.273 151.273h186.182v93.091h-186.182v-93.091zM372.364 709.818h372.364v93.091h-372.364v-93.091zM837.818 709.818h186.182v-744.727h-930.909v744.727h186.182v93.091h-279.273v-837.818c0-93.091 102.4-93.091 102.4-93.091h921.6s93.091 0 93.091 93.091v837.818h-279.273v-93.091z"  horiz-adv-x="1117" />

    
    </font>
</defs>
</svg>
